<svg xmlns="http://www.w3.org/2000/svg" xmlns:xlink="http://www.w3.org/1999/xlink" width="712" zoomAndPan="magnify" viewBox="0 0 534 143.249994" height="191" preserveAspectRatio="xMidYMid meet" version="1.0"><defs><g/><clipPath id="21ad4effd4"><path d="M 1.390625 0 L 121.511719 0 L 121.511719 142.503906 L 1.390625 142.503906 Z M 1.390625 0 " clip-rule="nonzero"/></clipPath><clipPath id="ca85a7f54a"><path d="M 477 50 L 532.609375 50 L 532.609375 120 L 477 120 Z M 477 50 " clip-rule="nonzero"/></clipPath></defs><g clip-path="url(#21ad4effd4)"><path fill="#ffffff" d="M 100.296875 0.113281 L 81.375 33.257812 L 69.9375 53.285156 L 59.039062 72.375 L 52.78125 83.335938 L 39.058594 107.367188 L 39.050781 107.382812 L 59.039062 142.390625 L 71.539062 120.496094 L 79.027344 107.382812 L 83.019531 100.390625 L 100.796875 69.257812 L 121.347656 33.257812 Z M 1.390625 41.960938 L 18.753906 72.101562 L 31.121094 93.570312 L 51.605469 59.292969 L 41.621094 41.960938 Z M 1.390625 41.960938 " fill-opacity="1" fill-rule="evenodd"/></g><g fill="#ffffff" fill-opacity="1"><g transform="translate(121.353008, 119.908073)"><g><path d="M 6.671875 0 L 6.671875 -69.015625 L 52.203125 -69.015625 L 52.203125 -58.546875 L 19.03125 -58.546875 L 19.03125 -40.0625 L 49.75 -40.0625 L 49.75 -29.734375 L 19.03125 -29.734375 L 19.03125 -10.46875 L 52.34375 -10.46875 L 52.34375 0 Z M 6.671875 0 "/></g></g></g><g fill="#ffffff" fill-opacity="1"><g transform="translate(173.423656, 119.908073)"><g><path d="M 6.671875 0 L 6.671875 -69.015625 L 32.75 -69.015625 C 37.96875 -69.015625 42.390625 -68.09375 46.015625 -66.25 C 49.640625 -64.414062 52.394531 -61.835938 54.28125 -58.515625 C 56.164062 -55.203125 57.109375 -51.335938 57.109375 -46.921875 C 57.109375 -42.503906 56.148438 -38.671875 54.234375 -35.421875 C 52.316406 -32.179688 49.519531 -29.679688 45.84375 -27.921875 C 42.175781 -26.171875 37.703125 -25.296875 32.421875 -25.296875 L 13.890625 -25.296875 L 13.890625 -35.53125 L 31.171875 -35.53125 C 34.222656 -35.53125 36.738281 -35.976562 38.71875 -36.875 C 40.695312 -37.769531 42.171875 -39.066406 43.140625 -40.765625 C 44.117188 -42.460938 44.609375 -44.515625 44.609375 -46.921875 C 44.609375 -49.390625 44.117188 -51.492188 43.140625 -53.234375 C 42.171875 -54.984375 40.691406 -56.320312 38.703125 -57.25 C 36.710938 -58.175781 34.1875 -58.640625 31.125 -58.640625 L 19.03125 -58.640625 L 19.03125 0 Z M 45.625 0 L 29.046875 -31.265625 L 42.46875 -31.265625 L 59.375 0 Z M 45.625 0 "/></g></g></g><g fill="#ffffff" fill-opacity="1"><g transform="translate(229.893953, 119.908073)"><g><path d="M 6.671875 0 L 6.671875 -69.015625 L 33.15625 -69.015625 C 38.101562 -69.015625 42.234375 -68.238281 45.546875 -66.6875 C 48.867188 -65.144531 51.363281 -63.023438 53.03125 -60.328125 C 54.695312 -57.628906 55.53125 -54.550781 55.53125 -51.09375 C 55.53125 -48.3125 55.003906 -45.921875 53.953125 -43.921875 C 52.910156 -41.929688 51.484375 -40.300781 49.671875 -39.03125 C 47.867188 -37.769531 45.820312 -36.863281 43.53125 -36.3125 L 43.53125 -35.75 C 46.039062 -35.601562 48.410156 -34.84375 50.640625 -33.46875 C 52.878906 -32.09375 54.703125 -30.179688 56.109375 -27.734375 C 57.515625 -25.296875 58.21875 -22.363281 58.21875 -18.9375 C 58.21875 -15.300781 57.34375 -12.050781 55.59375 -9.1875 C 53.851562 -6.332031 51.226562 -4.085938 47.71875 -2.453125 C 44.21875 -0.816406 39.828125 0 34.546875 0 Z M 18.984375 -10.234375 L 32.75 -10.234375 C 37.226562 -10.234375 40.507812 -11.113281 42.59375 -12.875 C 44.675781 -14.632812 45.71875 -16.9375 45.71875 -19.78125 C 45.71875 -21.84375 45.207031 -23.6875 44.1875 -25.3125 C 43.164062 -26.9375 41.710938 -28.21875 39.828125 -29.15625 C 37.953125 -30.09375 35.71875 -30.5625 33.125 -30.5625 L 18.984375 -30.5625 Z M 18.984375 -39.640625 L 31.828125 -39.640625 C 34.015625 -39.640625 35.972656 -40.039062 37.703125 -40.84375 C 39.429688 -41.65625 40.789062 -42.789062 41.78125 -44.25 C 42.769531 -45.71875 43.265625 -47.472656 43.265625 -49.515625 C 43.265625 -52.234375 42.304688 -54.460938 40.390625 -56.203125 C 38.472656 -57.953125 35.675781 -58.828125 32 -58.828125 L 18.984375 -58.828125 Z M 18.984375 -39.640625 "/></g></g></g><g fill="#ffffff" fill-opacity="1"><g transform="translate(286.82737, 119.908073)"><g><path d="M 1.953125 0 L 26.125 -69.015625 L 41.78125 -69.015625 L 66.375 0 L 52.84375 0 L 40.625 -35.9375 C 39.414062 -39.675781 38.15625 -43.835938 36.84375 -48.421875 C 35.53125 -53.003906 34.070312 -58.28125 32.46875 -64.25 L 35.25 -64.25 C 33.675781 -58.25 32.253906 -52.941406 30.984375 -48.328125 C 29.722656 -43.710938 28.519531 -39.582031 27.375 -35.9375 L 15.375 0 Z M 16.078125 -16.953125 L 16.078125 -26.953125 L 52.203125 -26.953125 L 52.203125 -16.953125 Z M 16.078125 -16.953125 "/></g></g></g><g fill="#ffffff" fill-opacity="1"><g transform="translate(349.920295, 119.908073)"><g><path d="M 6.671875 0 L 6.671875 -69.015625 L 19.03125 -69.015625 L 19.03125 -10.46875 L 49.84375 -10.46875 L 49.84375 0 Z M 6.671875 0 "/></g></g></g><g fill="#ffffff" fill-opacity="1"><g transform="translate(398.008091, 119.908073)"><g><path d="M 19.03125 -69.015625 L 19.03125 0 L 6.671875 0 L 6.671875 -69.015625 Z M 19.03125 -69.015625 "/></g></g></g><g fill="#ffffff" fill-opacity="1"><g transform="translate(418.447593, 119.908073)"><g><path d="M 31.078125 1.0625 C 25.671875 1.0625 20.976562 0.207031 17 -1.5 C 13.019531 -3.21875 9.925781 -5.703125 7.71875 -8.953125 C 5.507812 -12.210938 4.328125 -16.160156 4.171875 -20.796875 L 16.296875 -20.796875 C 16.484375 -18.296875 17.21875 -16.203125 18.5 -14.515625 C 19.78125 -12.835938 21.507812 -11.570312 23.6875 -10.71875 C 25.863281 -9.875 28.3125 -9.453125 31.03125 -9.453125 C 33.78125 -9.453125 36.195312 -9.859375 38.28125 -10.671875 C 40.363281 -11.492188 42 -12.660156 43.1875 -14.171875 C 44.375 -15.679688 44.96875 -17.425781 44.96875 -19.40625 C 44.96875 -21.164062 44.46875 -22.628906 43.46875 -23.796875 C 42.46875 -24.972656 41.03125 -25.976562 39.15625 -26.8125 C 37.289062 -27.644531 35.046875 -28.390625 32.421875 -29.046875 L 24.6875 -30.984375 C 18.664062 -32.460938 14.03125 -34.710938 10.78125 -37.734375 C 7.539062 -40.765625 5.921875 -44.722656 5.921875 -49.609375 C 5.921875 -53.679688 7.007812 -57.242188 9.1875 -60.296875 C 11.363281 -63.359375 14.359375 -65.738281 18.171875 -67.4375 C 21.992188 -69.132812 26.328125 -69.984375 31.171875 -69.984375 C 36.140625 -69.984375 40.476562 -69.125 44.1875 -67.40625 C 47.894531 -65.695312 50.796875 -63.3125 52.890625 -60.25 C 54.992188 -57.195312 56.09375 -53.664062 56.1875 -49.65625 L 44.28125 -49.65625 C 43.96875 -52.769531 42.628906 -55.191406 40.265625 -56.921875 C 37.910156 -58.648438 34.832031 -59.515625 31.03125 -59.515625 C 28.46875 -59.515625 26.234375 -59.113281 24.328125 -58.3125 C 22.429688 -57.507812 20.96875 -56.421875 19.9375 -55.046875 C 18.90625 -53.671875 18.390625 -52.085938 18.390625 -50.296875 C 18.390625 -48.441406 18.941406 -46.910156 20.046875 -45.703125 C 21.160156 -44.503906 22.628906 -43.519531 24.453125 -42.75 C 26.273438 -41.976562 28.238281 -41.347656 30.34375 -40.859375 L 36.921875 -39.1875 C 39.691406 -38.539062 42.304688 -37.691406 44.765625 -36.640625 C 47.222656 -35.585938 49.390625 -34.273438 51.265625 -32.703125 C 53.148438 -31.128906 54.625 -29.257812 55.6875 -27.09375 C 56.757812 -24.9375 57.296875 -22.40625 57.296875 -19.5 C 57.296875 -15.394531 56.253906 -11.796875 54.171875 -8.703125 C 52.085938 -5.617188 49.09375 -3.21875 45.1875 -1.5 C 41.28125 0.207031 36.578125 1.0625 31.078125 1.0625 Z M 31.078125 1.0625 "/></g></g></g><g clip-path="url(#ca85a7f54a)"><g fill="#ffffff" fill-opacity="1"><g transform="translate(473.852609, 119.908073)"><g><path d="M 3.46875 -58.546875 L 3.46875 -69.015625 L 58.453125 -69.015625 L 58.453125 -58.546875 L 37.140625 -58.546875 L 37.140625 0 L 24.828125 0 L 24.828125 -58.546875 Z M 3.46875 -58.546875 "/></g></g></g></g></svg>
