<svg xmlns="http://www.w3.org/2000/svg" xmlns:xlink="http://www.w3.org/1999/xlink" width="712" zoomAndPan="magnify" viewBox="0 0 534 143.249994" height="191" preserveAspectRatio="xMidYMid meet" version="1.0"><defs><g/><clipPath id="751536a2f2"><path d="M 1.390625 0 L 121.511719 0 L 121.511719 142.503906 L 1.390625 142.503906 Z M 1.390625 0 " clip-rule="nonzero"/></clipPath><clipPath id="66d5615f9b"><path d="M 479 42 L 532.609375 42 L 532.609375 106 L 479 106 Z M 479 42 " clip-rule="nonzero"/></clipPath></defs><g clip-path="url(#751536a2f2)"><path fill="#000000" d="M 100.296875 0.113281 L 81.375 33.257812 L 69.9375 53.285156 L 59.039062 72.375 L 52.78125 83.335938 L 39.058594 107.367188 L 39.050781 107.382812 L 59.039062 142.390625 L 71.539062 120.496094 L 79.027344 107.382812 L 83.019531 100.390625 L 100.796875 69.257812 L 121.347656 33.257812 Z M 1.390625 41.960938 L 18.753906 72.101562 L 31.121094 93.570312 L 51.605469 59.292969 L 41.621094 41.960938 Z M 1.390625 41.960938 " fill-opacity="1" fill-rule="evenodd"/></g><g fill="#000000" fill-opacity="1"><g transform="translate(119.776214, 105.807052)"><g><path d="M 6.75 -63.46875 L 50.3125 -63.46875 L 50.3125 -52.359375 L 20.71875 -52.359375 L 20.71875 -37.953125 L 48.53125 -37.953125 L 48.53125 -26.84375 L 20.71875 -26.84375 L 20.71875 -11.109375 L 50.3125 -11.109375 L 50.3125 0 L 6.75 0 Z M 6.75 -63.46875 "/></g></g></g><g fill="#000000" fill-opacity="1"><g transform="translate(171.413933, 105.807052)"><g><path d="M 6.75 -63.46875 L 37.25 -63.46875 C 44.0625 -63.46875 49.40625 -61.984375 53.28125 -59.015625 C 57.164062 -56.054688 59.109375 -51.613281 59.109375 -45.6875 C 59.109375 -41.894531 58.085938 -38.617188 56.046875 -35.859375 C 54.003906 -33.109375 51.5625 -31.203125 48.71875 -30.140625 L 48.71875 -29.78125 C 51.738281 -28.882812 53.914062 -27.335938 55.25 -25.140625 C 56.582031 -22.953125 57.394531 -19.726562 57.6875 -15.46875 L 58.9375 0 L 44.53125 0 L 43.375 -15.015625 C 43.132812 -18.578125 42.097656 -21.007812 40.265625 -22.3125 C 38.429688 -23.613281 35.707031 -24.265625 32.09375 -24.265625 L 20.71875 -24.265625 L 20.71875 0 L 6.75 0 Z M 34.671875 -34.84375 C 37.984375 -34.84375 40.554688 -35.628906 42.390625 -37.203125 C 44.234375 -38.773438 45.15625 -40.984375 45.15625 -43.828125 C 45.15625 -46.671875 44.234375 -48.863281 42.390625 -50.40625 C 40.554688 -51.945312 37.984375 -52.71875 34.671875 -52.71875 L 20.71875 -52.71875 L 20.71875 -34.84375 Z M 34.671875 -34.84375 "/></g></g></g><g fill="#000000" fill-opacity="1"><g transform="translate(231.672849, 105.807052)"><g><path d="M 6.75 -63.46875 L 34.671875 -63.46875 C 49.367188 -63.46875 56.71875 -57.867188 56.71875 -46.671875 C 56.71875 -43.347656 55.859375 -40.53125 54.140625 -38.21875 C 52.421875 -35.90625 50.34375 -34.1875 47.90625 -33.0625 L 47.90625 -32.71875 C 50.988281 -31.882812 53.597656 -30.238281 55.734375 -27.78125 C 57.867188 -25.320312 58.9375 -22.046875 58.9375 -17.953125 C 58.9375 -12.023438 56.945312 -7.550781 52.96875 -4.53125 C 49 -1.507812 43.460938 0 36.359375 0 L 6.75 0 Z M 36.09375 -10.484375 C 38.9375 -10.484375 41.15625 -11.207031 42.75 -12.65625 C 44.351562 -14.113281 45.15625 -16.207031 45.15625 -18.9375 C 45.15625 -21.65625 44.351562 -23.738281 42.75 -25.1875 C 41.15625 -26.644531 38.9375 -27.375 36.09375 -27.375 L 20.4375 -27.375 L 20.4375 -10.484375 Z M 34.484375 -37.421875 C 37.035156 -37.421875 39.082031 -38.085938 40.625 -39.421875 C 42.164062 -40.753906 42.9375 -42.695312 42.9375 -45.25 C 42.9375 -47.789062 42.164062 -49.710938 40.625 -51.015625 C 39.082031 -52.328125 37.035156 -52.984375 34.484375 -52.984375 L 20.4375 -52.984375 L 20.4375 -37.421875 Z M 34.484375 -37.421875 "/></g></g></g><g fill="#000000" fill-opacity="1"><g transform="translate(289.442992, 105.807052)"><g><path d="M 23.828125 -63.46875 L 40.71875 -63.46875 L 64 0 L 49.59375 0 L 44.890625 -13.421875 L 19.375 -13.421875 L 14.75 0 L 0.71875 0 Z M 41.0625 -24.359375 L 36.796875 -36.359375 C 35.078125 -41.273438 33.535156 -46.132812 32.171875 -50.9375 L 31.828125 -50.9375 C 30.878906 -47.789062 29.335938 -42.929688 27.203125 -36.359375 L 23.109375 -24.359375 Z M 41.0625 -24.359375 "/></g></g></g><g fill="#000000" fill-opacity="1"><g transform="translate(350.857331, 105.807052)"><g><path d="M 6.75 -63.46875 L 20.71875 -63.46875 L 20.71875 -11.109375 L 49.515625 -11.109375 L 49.515625 0 L 6.75 0 Z M 6.75 -63.46875 "/></g></g></g><g fill="#000000" fill-opacity="1"><g transform="translate(398.406641, 105.807052)"><g><path d="M 6.75 -63.46875 L 20.71875 -63.46875 L 20.71875 0 L 6.75 0 Z M 6.75 -63.46875 "/></g></g></g><g fill="#000000" fill-opacity="1"><g transform="translate(422.669805, 105.807052)"><g><path d="M 29.6875 1.515625 C 21.394531 1.515625 14.90625 -0.1875 10.21875 -3.59375 C 5.539062 -7.007812 3.113281 -12.300781 2.9375 -19.46875 L 16.890625 -19.46875 C 17.128906 -15.550781 18.414062 -12.644531 20.75 -10.75 C 23.09375 -8.851562 26.28125 -7.90625 30.3125 -7.90625 C 34.164062 -7.90625 37.273438 -8.71875 39.640625 -10.34375 C 42.015625 -11.976562 43.203125 -14.128906 43.203125 -16.796875 C 43.203125 -19.347656 42.3125 -21.210938 40.53125 -22.390625 C 38.757812 -23.578125 35.828125 -24.585938 31.734375 -25.421875 L 24.796875 -26.84375 C 17.804688 -28.269531 12.617188 -30.429688 9.234375 -33.328125 C 5.859375 -36.234375 4.171875 -40.207031 4.171875 -45.25 C 4.171875 -49.21875 5.28125 -52.695312 7.5 -55.6875 C 9.726562 -58.675781 12.84375 -60.972656 16.84375 -62.578125 C 20.84375 -64.179688 25.421875 -64.984375 30.578125 -64.984375 C 38.109375 -64.984375 44.179688 -63.367188 48.796875 -60.140625 C 53.421875 -56.910156 55.941406 -52.15625 56.359375 -45.875 L 42.40625 -45.875 C 42.101562 -48.894531 40.84375 -51.265625 38.625 -52.984375 C 36.40625 -54.703125 33.578125 -55.5625 30.140625 -55.5625 C 26.460938 -55.5625 23.554688 -54.816406 21.421875 -53.328125 C 19.285156 -51.847656 18.21875 -49.804688 18.21875 -47.203125 C 18.21875 -45.179688 19.09375 -43.535156 20.84375 -42.265625 C 22.59375 -40.992188 25.242188 -40.003906 28.796875 -39.296875 L 35.734375 -37.875 C 40.773438 -36.800781 44.832031 -35.566406 47.90625 -34.171875 C 50.988281 -32.785156 53.34375 -30.890625 54.96875 -28.484375 C 56.601562 -26.085938 57.421875 -22.992188 57.421875 -19.203125 C 57.421875 -14.929688 56.234375 -11.238281 53.859375 -8.125 C 51.492188 -5.019531 48.222656 -2.632812 44.046875 -0.96875 C 39.867188 0.6875 35.082031 1.515625 29.6875 1.515625 Z M 29.6875 1.515625 "/></g></g></g><g clip-path="url(#66d5615f9b)"><g fill="#000000" fill-opacity="1"><g transform="translate(478.395727, 105.807052)"><g><path d="M 20.796875 -52.359375 L 1.328125 -52.359375 L 1.328125 -63.46875 L 54.3125 -63.46875 L 54.3125 -52.359375 L 34.75 -52.359375 L 34.75 0 L 20.796875 0 Z M 20.796875 -52.359375 "/></g></g></g></g></svg>