<svg xmlns="http://www.w3.org/2000/svg" xmlns:xlink="http://www.w3.org/1999/xlink" width="500" zoomAndPan="magnify" viewBox="0 0 375 374.999991" height="500" preserveAspectRatio="xMidYMid meet" version="1.0"><defs><clipPath id="47d63fae4e"><path d="M 274 123.75 L 343 123.75 L 343 251.25 L 274 251.25 Z M 274 123.75 " clip-rule="nonzero"/></clipPath><clipPath id="321065a1b5"><path d="M 192 123.75 L 261 123.75 L 261 208 L 192 208 Z M 192 123.75 " clip-rule="nonzero"/></clipPath><clipPath id="f460863581"><path d="M 60 123.75 L 129 123.75 L 129 208 L 60 208 Z M 60 123.75 " clip-rule="nonzero"/></clipPath><clipPath id="35ddf62719"><path d="M 8 123.75 L 47 123.75 L 47 251.25 L 8 251.25 Z M 8 123.75 " clip-rule="nonzero"/></clipPath><clipPath id="d917f16a0e"><path d="M 142 123.75 L 186 123.75 L 186 209 L 142 209 Z M 142 123.75 " clip-rule="nonzero"/></clipPath><clipPath id="b3e3a56cd5"><path d="M 0 123.75 L 19 123.75 L 19 143 L 0 143 Z M 0 123.75 " clip-rule="nonzero"/></clipPath></defs><g clip-path="url(#47d63fae4e)"><path fill="#a3a3a3" d="M 284.25 123.75 C 286.546875 124.925781 287.414062 125.390625 288.75 127.5 C 289.425781 131.039062 289.34375 134.566406 289.296875 138.15625 C 289.304688 139.214844 289.3125 140.265625 289.320312 141.324219 C 289.34375 144.105469 289.335938 146.878906 289.320312 149.65625 C 289.304688 154.09375 289.320312 158.535156 289.34375 162.976562 C 289.351562 164.511719 289.34375 166.058594 289.328125 167.59375 C 289.335938 175.574219 289.957031 182.101562 295.5 188.25 C 300.382812 191.8125 305.199219 193.328125 311.25 192.75 C 316.132812 191.761719 319.972656 189.796875 323.25 186 C 326.257812 181.335938 327.089844 176.992188 327.105469 171.480469 C 327.113281 170.527344 327.121094 169.582031 327.121094 168.601562 C 327.121094 168.097656 327.128906 167.59375 327.128906 167.078125 C 327.136719 165.496094 327.140625 163.914062 327.15625 162.328125 C 327.195312 157.828125 327.234375 153.328125 327.246094 148.835938 C 327.253906 146.078125 327.277344 143.324219 327.308594 140.566406 C 327.316406 139.515625 327.316406 138.472656 327.316406 137.421875 C 327.316406 135.953125 327.328125 134.488281 327.351562 133.019531 C 327.359375 131.773438 327.359375 131.773438 327.367188 130.5 C 327.839844 127.746094 328.828125 126.488281 330.75 124.5 C 333.074219 123.335938 334.933594 123.53125 337.5 123.75 C 339.5625 125.101562 340.898438 126.039062 342 128.25 C 342.074219 129.488281 342.105469 130.71875 342.113281 131.953125 C 342.113281 132.742188 342.121094 133.523438 342.128906 134.332031 C 342.128906 135.195312 342.128906 136.066406 342.136719 136.949219 C 342.136719 137.859375 342.140625 138.765625 342.148438 139.703125 C 342.164062 142.71875 342.171875 145.734375 342.179688 148.753906 C 342.179688 149.789062 342.1875 150.832031 342.1875 151.875 C 342.203125 156.765625 342.210938 161.664062 342.21875 166.550781 C 342.226562 172.183594 342.246094 177.816406 342.277344 183.457031 C 342.300781 187.816406 342.308594 192.179688 342.316406 196.539062 C 342.316406 199.140625 342.324219 201.742188 342.335938 204.34375 C 342.359375 207.253906 342.359375 210.164062 342.351562 213.074219 C 342.359375 213.921875 342.375 214.777344 342.382812 215.648438 C 342.316406 225.488281 338.953125 234.15625 332.390625 241.523438 C 324.703125 248.8125 314.949219 251.753906 304.550781 251.484375 C 295.710938 250.988281 287.226562 246.511719 281.296875 240 C 280.507812 239.015625 279.742188 238.019531 279 237 C 278.675781 236.558594 278.347656 236.113281 278.015625 235.664062 C 275.761719 232.214844 275.488281 229.726562 276 225.75 C 277.171875 223.546875 277.171875 223.546875 279 222 C 281.730469 221.203125 283.425781 220.964844 286.125 221.910156 C 287.910156 223.425781 289.085938 224.863281 290.484375 226.734375 C 293.910156 231.292969 297.839844 235.011719 303.601562 236.113281 C 309.316406 236.585938 314.789062 235.933594 319.5 232.5 C 324.421875 228.21875 326.640625 223.359375 327.179688 216.847656 C 327.21875 214.65625 327.195312 212.476562 327.140625 210.285156 C 327.128906 209.527344 327.121094 208.777344 327.113281 207.996094 C 327.082031 206.167969 327.046875 204.328125 327 202.5 C 326.488281 202.769531 325.972656 203.046875 325.441406 203.324219 C 316.53125 208.003906 307.859375 209.28125 297.984375 206.625 C 289.957031 203.851562 282.765625 198.246094 278.65625 190.746094 C 274.882812 182.835938 274.261719 175.925781 274.246094 167.242188 C 274.246094 166.15625 274.238281 165.058594 274.230469 163.972656 C 274.222656 161.699219 274.222656 159.421875 274.222656 157.148438 C 274.222656 154.238281 274.199219 151.328125 274.175781 148.417969 C 274.164062 146.175781 274.15625 143.925781 274.15625 141.675781 C 274.15625 140.601562 274.148438 139.53125 274.140625 138.457031 C 274.125 136.957031 274.125 135.457031 274.132812 133.957031 C 274.132812 133.109375 274.132812 132.253906 274.132812 131.378906 C 274.582031 128.453125 275.675781 126.808594 277.5 124.5 C 279.863281 123.324219 281.640625 123.488281 284.25 123.75 Z M 284.25 123.75 " fill-opacity="1" fill-rule="nonzero"/></g><g clip-path="url(#321065a1b5)"><path fill="#a3a3a3" d="M 245.601562 128.679688 C 252.605469 133.691406 257.847656 141.003906 259.910156 149.425781 C 260.308594 151.847656 260.363281 154.15625 260.382812 156.617188 C 260.382812 157.113281 260.390625 157.617188 260.398438 158.132812 C 260.414062 159.769531 260.421875 161.410156 260.429688 163.054688 C 260.429688 163.617188 260.4375 164.179688 260.4375 164.761719 C 260.453125 167.734375 260.464844 170.710938 260.472656 173.6875 C 260.480469 176.753906 260.503906 179.824219 260.535156 182.890625 C 260.554688 185.261719 260.5625 187.625 260.5625 189.992188 C 260.5625 191.117188 260.578125 192.25 260.585938 193.382812 C 260.609375 194.964844 260.609375 196.546875 260.601562 198.128906 C 260.609375 199.03125 260.609375 199.929688 260.617188 200.859375 C 260.175781 203.726562 259.257812 204.957031 257.25 207.003906 C 254.886719 208.179688 253.109375 208.007812 250.5 207.753906 C 248.195312 206.574219 247.335938 206.117188 246 204.003906 C 245.332031 200.425781 245.429688 196.855469 245.472656 193.234375 C 245.472656 192.160156 245.464844 191.09375 245.460938 190.023438 C 245.445312 187.210938 245.460938 184.398438 245.472656 181.578125 C 245.496094 177.09375 245.496094 172.601562 245.472656 168.109375 C 245.472656 166.546875 245.488281 164.996094 245.503906 163.4375 C 245.503906 155.554688 244.882812 148.847656 239.195312 143.019531 C 234.410156 138.820312 230.089844 138.265625 223.761719 138.460938 C 218.453125 139.074219 214.917969 141.414062 211.5 145.503906 C 208.550781 149.929688 207.660156 153.304688 207.644531 158.574219 C 207.636719 159.550781 207.636719 160.53125 207.628906 161.539062 C 207.628906 162.0625 207.621094 162.582031 207.621094 163.121094 C 207.621094 164.753906 207.605469 166.390625 207.589844 168.027344 C 207.554688 172.683594 207.515625 177.332031 207.507812 181.984375 C 207.5 184.832031 207.480469 187.683594 207.441406 190.527344 C 207.433594 191.613281 207.433594 192.691406 207.433594 193.78125 C 207.433594 195.296875 207.417969 196.8125 207.398438 198.324219 C 207.398438 199.1875 207.390625 200.050781 207.382812 200.941406 C 206.917969 203.742188 205.957031 204.984375 204 207.003906 C 201.734375 208.136719 199.753906 207.878906 197.25 207.753906 C 194.714844 206.859375 194.300781 206.328125 192.75 204.003906 C 192.546875 201.769531 192.546875 201.769531 192.53125 199 C 192.523438 198.492188 192.523438 197.988281 192.515625 197.46875 C 192.5 195.796875 192.5 194.117188 192.5 192.445312 C 192.492188 191.277344 192.488281 190.113281 192.488281 188.941406 C 192.472656 186.484375 192.472656 184.03125 192.472656 181.570312 C 192.472656 178.449219 192.449219 175.324219 192.425781 172.203125 C 192.410156 169.78125 192.402344 167.367188 192.402344 164.941406 C 192.402344 163.796875 192.398438 162.648438 192.390625 161.492188 C 192.285156 150.09375 194.554688 141.0625 202.574219 132.582031 C 214.242188 121.554688 232.09375 120.0625 245.601562 128.679688 Z M 245.601562 128.679688 " fill-opacity="1" fill-rule="nonzero"/></g><g clip-path="url(#f460863581)"><path fill="#a3a3a3" d="M 65.550781 123.25 C 66.488281 123.265625 66.488281 123.265625 67.457031 123.28125 C 68.078125 123.273438 68.703125 123.257812 69.347656 123.25 C 72.097656 123.972656 73.203125 125.328125 75 127.496094 C 75.460938 129.8125 75.460938 129.8125 75.445312 132.433594 C 75.453125 133.910156 75.453125 133.910156 75.460938 135.410156 C 75.460938 135.933594 75.453125 136.460938 75.445312 137 C 75.421875 138.640625 75.429688 140.292969 75.4375 141.933594 C 75.453125 145.4375 75.4375 148.9375 75.421875 152.433594 C 75.40625 156.484375 75.398438 160.535156 75.421875 164.585938 C 75.421875 166.195312 75.40625 167.808594 75.390625 169.421875 C 75.375 176.277344 76.351562 181.40625 80.4375 186.988281 C 84.347656 190.804688 88.816406 192.523438 94.214844 192.988281 C 98.957031 192.917969 103.074219 190.863281 107.109375 188.53125 C 111.789062 183.453125 113.335938 177.46875 113.355469 170.726562 C 113.363281 169.78125 113.363281 168.828125 113.371094 167.855469 C 113.371094 167.351562 113.371094 166.847656 113.378906 166.332031 C 113.378906 164.75 113.394531 163.160156 113.410156 161.578125 C 113.445312 157.085938 113.484375 152.585938 113.492188 148.085938 C 113.5 145.324219 113.523438 142.570312 113.550781 139.8125 C 113.566406 138.769531 113.566406 137.71875 113.566406 136.667969 C 113.566406 135.207031 113.582031 133.738281 113.605469 132.273438 C 113.613281 131.023438 113.613281 131.023438 113.621094 129.746094 C 114.085938 126.988281 115.050781 125.726562 117 123.746094 C 118.800781 123.25 118.800781 123.25 120.707031 123.28125 C 121.328125 123.273438 121.953125 123.257812 122.597656 123.25 C 125.347656 123.972656 126.453125 125.328125 128.25 127.496094 C 128.722656 129.851562 128.722656 129.851562 128.722656 132.523438 C 128.730469 133.007812 128.730469 133.503906 128.738281 134.007812 C 128.753906 135.621094 128.738281 137.230469 128.722656 138.84375 C 128.722656 139.976562 128.722656 141.109375 128.722656 142.242188 C 128.730469 144.613281 128.714844 146.980469 128.695312 149.359375 C 128.671875 152.375 128.679688 155.390625 128.695312 158.40625 C 128.703125 160.746094 128.695312 163.085938 128.679688 165.417969 C 128.679688 166.527344 128.679688 167.636719 128.679688 168.746094 C 128.710938 180.273438 126.496094 189.640625 118.425781 198.160156 C 110.640625 205.535156 102.0625 208.183594 91.457031 207.933594 C 84.445312 207.5 79.277344 204.859375 73.5 200.996094 C 72.503906 200.351562 72.503906 200.351562 71.484375 199.683594 C 65.875 194.230469 61.015625 186.371094 60.640625 178.390625 C 60.632812 177.460938 60.625 176.539062 60.617188 175.578125 C 60.609375 175.070312 60.609375 174.550781 60.601562 174.027344 C 60.585938 172.332031 60.578125 170.636719 60.570312 168.941406 C 60.570312 168.355469 60.5625 167.78125 60.5625 167.179688 C 60.550781 164.113281 60.535156 161.042969 60.527344 157.976562 C 60.519531 154.8125 60.496094 151.648438 60.464844 148.480469 C 60.445312 146.042969 60.4375 143.605469 60.4375 141.167969 C 60.429688 140 60.421875 138.835938 60.40625 137.667969 C 60.390625 136.03125 60.390625 134.398438 60.398438 132.769531 C 60.390625 131.839844 60.390625 130.910156 60.382812 129.949219 C 60.878906 126.613281 62.167969 124.1875 65.550781 123.25 Z M 65.550781 123.25 " fill-opacity="1" fill-rule="nonzero"/></g><g clip-path="url(#35ddf62719)"><path fill="#a3a3a3" d="M 38.625 123.234375 C 41.339844 123.414062 41.984375 123.746094 44.25 125.484375 C 46.191406 128.09375 46.589844 129.9375 46.605469 133.097656 C 46.613281 133.785156 46.613281 134.46875 46.621094 135.183594 C 46.621094 135.933594 46.621094 136.683594 46.621094 137.453125 C 46.628906 138.648438 46.628906 138.648438 46.636719 139.863281 C 46.640625 142.496094 46.648438 145.125 46.648438 147.757812 C 46.65625 149.597656 46.65625 151.425781 46.664062 153.265625 C 46.671875 157.121094 46.679688 160.972656 46.679688 164.828125 C 46.6875 169.742188 46.703125 174.65625 46.726562 179.566406 C 46.738281 183.363281 46.738281 187.15625 46.738281 190.953125 C 46.746094 192.765625 46.746094 194.574219 46.761719 196.382812 C 46.84375 213.167969 46.371094 228.5625 33.988281 241.359375 C 28.695312 246.339844 23.101562 251.28125 15.5625 251.625 C 12.996094 251.523438 12.203125 251.402344 10.078125 249.84375 C 8.25 247.148438 7.867188 245.535156 8.25 242.25 C 10.6875 238.269531 13.484375 236.898438 17.632812 234.945312 C 23.902344 231.765625 27.691406 226.328125 30.046875 219.789062 C 31.109375 215.941406 30.953125 212.0625 30.929688 208.105469 C 30.929688 207.242188 30.929688 206.386719 30.9375 205.5 C 30.9375 203.648438 30.9375 201.796875 30.929688 199.945312 C 30.929688 197.003906 30.9375 194.070312 30.945312 191.140625 C 30.976562 182.800781 30.988281 174.453125 30.984375 166.113281 C 30.976562 161.003906 30.988281 155.898438 31.011719 150.789062 C 31.019531 148.847656 31.019531 146.898438 31.011719 144.953125 C 30.996094 142.238281 31.011719 139.515625 31.027344 136.800781 C 31.019531 136 31.011719 135.195312 31.003906 134.363281 C 31.078125 128.28125 31.078125 128.28125 33.300781 125.5 C 35.296875 123.707031 35.992188 123.144531 38.625 123.234375 Z M 38.625 123.234375 " fill-opacity="1" fill-rule="nonzero"/></g><g clip-path="url(#d917f16a0e)"><path fill="#a3a3a3" d="M 175.40625 123.375 C 176.027344 123.359375 176.660156 123.34375 177.304688 123.328125 C 180.183594 123.359375 181.75 123.390625 184.136719 125.113281 C 185.71875 127.441406 185.953125 129.203125 185.996094 132 C 185.074219 134.273438 184.082031 135.457031 182.246094 137.0625 C 179.988281 138.007812 178.527344 138.148438 176.109375 138.285156 C 170.921875 138.652344 166.554688 140.183594 162.835938 143.925781 C 159.410156 148.261719 158.066406 152.363281 158.042969 157.914062 C 158.035156 158.871094 158.027344 159.839844 158.019531 160.828125 C 158.019531 161.332031 158.019531 161.84375 158.019531 162.367188 C 158.019531 163.964844 158.007812 165.570312 157.992188 167.175781 C 157.945312 171.726562 157.921875 176.28125 157.910156 180.832031 C 157.894531 183.621094 157.871094 186.414062 157.839844 189.203125 C 157.832031 190.265625 157.832031 191.324219 157.832031 192.382812 C 157.832031 193.867188 157.820312 195.351562 157.804688 196.835938 C 157.796875 198.097656 157.796875 198.097656 157.789062 199.386719 C 157.457031 202.117188 156.679688 203.910156 155.246094 206.25 C 152.5 208.085938 150.199219 208.378906 146.996094 207.75 C 144.980469 206.113281 143.660156 204.816406 142.496094 202.5 C 142.421875 200.976562 142.390625 199.449219 142.375 197.917969 C 142.367188 196.949219 142.359375 195.988281 142.355469 194.992188 C 142.355469 193.933594 142.355469 192.878906 142.347656 191.8125 C 142.347656 190.726562 142.339844 189.636719 142.332031 188.550781 C 142.324219 186.261719 142.324219 183.976562 142.316406 181.695312 C 142.316406 178.785156 142.300781 175.875 142.277344 172.964844 C 142.265625 170.707031 142.257812 168.457031 142.257812 166.207031 C 142.257812 165.136719 142.25 164.0625 142.242188 162.988281 C 142.144531 152.109375 144.027344 141.515625 151.660156 133.246094 C 158.785156 126.636719 165.769531 123.515625 175.40625 123.375 Z M 175.40625 123.375 " fill-opacity="1" fill-rule="nonzero"/></g><path fill="#a3a3a3" d="M 369.75 189 C 372.097656 190.253906 373.792969 191.84375 375 194.25 C 375.375 197.542969 375.757812 200.992188 374.242188 204.015625 C 372.644531 205.980469 371.40625 206.949219 369 207.75 C 365.484375 208.035156 363.703125 208.09375 360.515625 206.535156 C 358.214844 204.496094 357.203125 203.167969 356.25 200.25 C 356.25 196.628906 356.542969 194.496094 358.828125 191.671875 C 362.101562 188.398438 365.273438 188.371094 369.75 189 Z M 369.75 189 " fill-opacity="1" fill-rule="nonzero"/><g clip-path="url(#b3e3a56cd5)"><path fill="#a3a3a3" d="M 12.75 123.75 C 15.308594 125.003906 16.828125 126.824219 18.328125 129.234375 C 18.921875 132.058594 18.878906 134.484375 18 137.25 C 15.261719 140.648438 13.027344 142.304688 8.714844 142.785156 C 5.496094 142.449219 3.988281 141.523438 1.5 139.5 C -0.832031 136.003906 -0.554688 132.335938 0 128.25 C 3.488281 123.570312 7.171875 122.984375 12.75 123.75 Z M 12.75 123.75 " fill-opacity="1" fill-rule="nonzero"/></g></svg>
