<svg xmlns="http://www.w3.org/2000/svg" xmlns:xlink="http://www.w3.org/1999/xlink" width="500" zoomAndPan="magnify" viewBox="0 0 375 374.999991" height="500" preserveAspectRatio="xMidYMid meet" version="1.0"><path fill="#a3a3a3" d="M 105.277344 295.035156 C 104.28125 294.707031 103.289062 294.707031 102.296875 294.375 C 99.320312 293.714844 96.671875 292.390625 94.355469 290.40625 C 91.710938 288.089844 90.386719 285.109375 89.722656 281.46875 C 89.394531 279.484375 89.0625 277.167969 89.0625 274.851562 C 89.0625 272.867188 89.0625 270.882812 89.0625 268.898438 C 89.0625 266.25 89.394531 263.601562 89.722656 260.957031 C 90.71875 256.65625 93.03125 253.34375 96.671875 251.03125 C 98.65625 249.707031 100.972656 249.042969 103.289062 248.714844 C 106.597656 248.050781 109.90625 248.050781 113.21875 249.042969 C 116.855469 249.707031 119.835938 251.691406 122.152344 254.339844 C 124.136719 256.65625 125.128906 259.632812 125.789062 262.609375 C 126.121094 264.265625 126.121094 266.25 126.121094 267.90625 C 126.121094 270.882812 126.121094 273.859375 126.121094 277.167969 C 126.121094 280.148438 125.460938 283.457031 124.136719 286.101562 C 123.472656 287.425781 122.8125 288.417969 121.820312 289.410156 C 119.171875 292.390625 115.863281 293.714844 111.894531 294.375 C 111.230469 294.375 110.570312 294.707031 109.90625 294.707031 C 108.253906 295.035156 106.929688 295.035156 105.277344 295.035156 Z M 115.863281 271.875 C 115.863281 270.21875 115.863281 268.898438 115.863281 267.242188 C 115.863281 265.589844 115.53125 264.265625 115.203125 262.609375 C 114.539062 260.292969 113.21875 258.640625 110.902344 257.648438 C 109.578125 257.316406 108.253906 256.984375 106.929688 256.984375 C 103.953125 256.984375 101.636719 258.640625 100.3125 261.617188 C 99.980469 262.941406 99.652344 264.265625 99.652344 265.589844 C 99.652344 267.574219 99.320312 269.558594 99.320312 271.542969 C 99.320312 272.535156 99.320312 273.859375 99.320312 274.851562 C 99.320312 276.507812 99.320312 277.832031 99.652344 279.484375 C 99.980469 282.464844 101.304688 284.78125 104.613281 285.773438 C 106.597656 286.433594 108.914062 286.433594 110.902344 285.773438 C 112.554688 285.109375 113.878906 283.785156 114.871094 282.132812 C 115.203125 281.140625 115.53125 279.816406 115.53125 278.824219 C 115.863281 276.507812 115.863281 274.191406 115.863281 271.875 Z M 115.863281 271.875 " fill-opacity="1" fill-rule="nonzero"/><path fill="#a3a3a3" d="M 4.027344 266.25 C 4.027344 265.589844 4.355469 264.925781 4.355469 263.933594 C 4.6875 260.625 5.679688 257.316406 7.996094 254.339844 C 9.652344 252.023438 11.96875 250.367188 14.945312 249.375 C 17.921875 248.382812 20.902344 248.050781 23.878906 248.050781 C 27.519531 248.050781 30.828125 249.042969 33.804688 250.699219 C 36.453125 252.351562 38.4375 254.339844 39.761719 257.316406 C 40.09375 258.308594 40.09375 258.308594 39.097656 258.96875 C 36.78125 259.964844 34.796875 260.625 32.480469 261.617188 C 31.488281 261.949219 31.15625 261.949219 30.496094 260.957031 C 29.171875 259.300781 27.847656 257.648438 25.53125 257.316406 C 23.546875 256.984375 21.230469 256.984375 19.246094 257.976562 C 16.929688 258.96875 15.605469 260.957031 15.277344 263.273438 C 14.945312 264.59375 14.945312 265.917969 14.945312 267.574219 C 14.945312 270.21875 14.945312 272.867188 14.945312 275.515625 C 14.945312 276.839844 14.945312 278.492188 15.277344 279.816406 C 15.9375 283.125 17.921875 285.441406 21.5625 286.101562 C 22.886719 286.433594 24.539062 286.433594 25.863281 286.101562 C 28.84375 285.441406 31.15625 283.457031 31.488281 279.816406 C 31.488281 279.15625 31.488281 278.160156 31.488281 277.167969 C 30.496094 276.839844 30.164062 276.839844 30.164062 276.839844 C 28.511719 276.839844 26.527344 276.839844 24.871094 276.839844 C 23.546875 276.839844 23.546875 276.839844 23.546875 275.84375 C 23.546875 274.191406 23.546875 272.207031 23.546875 270.550781 C 23.546875 269.558594 23.546875 269.558594 24.539062 269.558594 C 29.835938 269.558594 34.796875 269.558594 40.09375 269.558594 C 41.085938 269.558594 41.085938 269.558594 41.085938 270.550781 C 41.085938 272.207031 41.085938 274.191406 41.085938 275.84375 C 40.753906 278.824219 40.753906 282.132812 39.429688 285.109375 C 37.777344 288.75 35.460938 291.398438 32.152344 293.050781 C 29.835938 294.042969 27.519531 294.707031 25.203125 295.035156 C 25.203125 295.035156 24.871094 295.035156 24.871094 295.367188 C 23.546875 295.367188 21.894531 295.367188 20.570312 295.367188 C 20.570312 295.367188 20.238281 295.367188 20.238281 295.035156 C 17.59375 294.707031 14.613281 294.042969 12.296875 292.71875 C 10.644531 291.726562 8.988281 290.40625 7.664062 288.75 C 5.679688 286.101562 4.355469 282.792969 4.355469 279.484375 C 4.355469 278.824219 4.027344 278.160156 4.027344 277.167969 C 4.027344 273.53125 4.027344 269.890625 4.027344 266.25 Z M 4.027344 266.25 " fill-opacity="1" fill-rule="nonzero"/><path fill="#a3a3a3" d="M 148.621094 295.035156 C 147.628906 294.707031 146.636719 294.707031 145.644531 294.375 C 141.671875 293.382812 138.695312 291.726562 136.046875 288.75 C 134.394531 286.433594 133.402344 284.117188 133.070312 281.140625 C 132.738281 279.816406 132.738281 278.492188 132.738281 277.167969 C 132.738281 268.234375 132.738281 259.632812 132.738281 250.699219 C 132.738281 249.375 132.738281 249.375 134.0625 249.375 C 136.710938 249.375 139.027344 249.375 141.671875 249.375 C 142.996094 249.375 142.996094 249.375 142.996094 250.699219 C 142.996094 259.632812 142.996094 268.566406 142.996094 277.832031 C 142.996094 279.484375 143.328125 281.140625 143.988281 282.464844 C 144.652344 284.117188 145.972656 285.109375 147.628906 285.773438 C 149.945312 286.765625 152.261719 286.765625 154.578125 285.441406 C 156.5625 284.449219 157.554688 283.125 158.21875 281.140625 C 158.546875 280.148438 158.546875 279.15625 158.546875 277.832031 C 158.546875 268.898438 158.546875 259.964844 158.546875 250.699219 C 158.546875 249.042969 158.546875 249.042969 159.871094 249.042969 C 162.519531 249.042969 164.835938 249.042969 167.480469 249.042969 C 168.472656 249.042969 168.804688 249.042969 168.804688 250.367188 C 168.804688 259.632812 168.804688 268.566406 168.804688 277.832031 C 168.804688 281.140625 168.144531 284.117188 166.488281 286.765625 C 164.503906 290.40625 161.527344 292.390625 157.554688 293.714844 C 156.230469 294.042969 154.90625 294.375 153.253906 294.707031 C 152.921875 294.707031 152.921875 294.707031 152.921875 295.035156 C 151.597656 295.035156 150.277344 295.035156 148.621094 295.035156 Z M 148.621094 295.035156 " fill-opacity="1" fill-rule="nonzero"/><path fill="#a3a3a3" d="M 135.054688 78.640625 C 136.046875 78.640625 137.039062 78.96875 138.03125 78.96875 C 141.671875 79.632812 144.980469 80.625 147.960938 82.609375 C 148.289062 82.609375 148.289062 82.941406 148.621094 82.941406 C 149.28125 83.273438 149.28125 83.601562 148.953125 84.265625 C 147.296875 86.582031 145.972656 88.234375 144.652344 90.21875 C 144.320312 90.882812 143.988281 90.882812 143.328125 90.550781 C 142.003906 89.890625 140.679688 89.226562 139.355469 88.566406 C 137.039062 87.574219 134.394531 87.242188 132.078125 87.242188 C 131.085938 87.242188 130.09375 87.574219 129.429688 87.90625 C 127.113281 88.566406 126.121094 90.21875 126.121094 92.207031 C 126.121094 93.859375 127.445312 95.183594 129.097656 96.175781 C 131.085938 96.839844 133.070312 97.167969 135.054688 97.5 C 138.03125 97.832031 140.679688 98.492188 143.328125 99.484375 C 147.960938 101.46875 150.277344 104.78125 150.605469 109.742188 C 150.605469 111.726562 150.605469 113.714844 149.945312 115.699219 C 148.621094 119.007812 146.636719 121.324219 143.65625 122.648438 C 141.011719 123.96875 138.03125 124.632812 135.054688 124.964844 C 131.414062 125.292969 127.777344 124.964844 124.136719 123.96875 C 120.828125 122.976562 117.519531 121.65625 114.539062 119.339844 C 113.546875 118.675781 113.546875 118.34375 114.539062 117.351562 C 115.863281 115.699219 117.519531 114.375 118.84375 112.71875 C 118.84375 112.390625 119.171875 112.390625 119.171875 112.390625 C 119.835938 111.726562 119.835938 111.726562 120.496094 112.390625 C 121.820312 113.382812 123.472656 114.042969 124.796875 115.035156 C 126.78125 116.03125 129.097656 116.691406 131.746094 117.023438 C 133.402344 117.023438 135.386719 117.023438 137.039062 116.359375 C 139.355469 115.699219 140.347656 113.714844 140.347656 111.398438 C 140.347656 110.074219 139.6875 108.75 138.363281 108.089844 C 136.710938 107.09375 135.054688 106.765625 133.402344 106.433594 C 131.085938 106.101562 128.4375 105.773438 126.121094 105.109375 C 124.46875 104.78125 122.8125 104.117188 121.15625 103.125 C 118.179688 101.46875 116.527344 98.824219 115.863281 95.515625 C 115.203125 92.867188 115.53125 90.21875 116.527344 87.574219 C 117.847656 84.59375 119.835938 82.28125 122.8125 80.957031 C 124.796875 79.964844 127.113281 79.300781 129.429688 78.96875 C 129.429688 78.96875 129.761719 78.96875 129.761719 78.640625 C 131.746094 78.640625 133.402344 78.640625 135.054688 78.640625 Z M 135.054688 78.640625 " fill-opacity="1" fill-rule="nonzero"/><path fill="#a3a3a3" d="M 281.96875 78.640625 C 282.296875 78.640625 282.628906 78.96875 282.628906 78.96875 C 286.929688 79.300781 290.902344 80.625 294.539062 82.941406 C 294.871094 82.941406 294.871094 83.273438 295.203125 83.273438 C 295.53125 83.601562 295.863281 83.933594 295.53125 84.265625 C 294.210938 86.582031 292.886719 88.234375 291.5625 90.21875 C 291.230469 90.882812 290.902344 90.882812 289.90625 90.550781 C 288.585938 89.890625 287.261719 89.226562 285.605469 88.566406 C 283.289062 87.574219 280.972656 87.242188 278.328125 87.242188 C 277.003906 87.242188 275.679688 87.574219 274.6875 88.566406 C 272.703125 89.890625 272.371094 92.535156 273.695312 94.523438 C 274.355469 95.183594 275.347656 95.84375 276.011719 96.175781 C 277.996094 96.839844 279.980469 97.167969 281.96875 97.5 C 284.945312 97.832031 288.253906 98.492188 290.902344 99.816406 C 295.203125 102.132812 297.1875 105.773438 297.519531 110.40625 C 297.519531 112.390625 297.519531 114.042969 296.855469 115.699219 C 295.863281 118.675781 293.878906 120.660156 291.230469 122.316406 C 288.585938 123.96875 285.9375 124.632812 282.960938 124.964844 C 277.335938 125.625 272.039062 124.964844 266.746094 122.648438 C 265.09375 121.984375 263.4375 120.992188 261.78125 119.667969 C 261.453125 119.339844 261.453125 119.339844 261.121094 119.007812 C 260.460938 118.34375 260.460938 118.015625 261.121094 117.351562 C 262.113281 116.359375 263.105469 115.367188 264.097656 114.042969 C 264.761719 113.382812 265.421875 112.71875 266.085938 112.058594 C 266.746094 111.398438 267.078125 111.398438 267.738281 112.058594 C 269.722656 113.382812 271.710938 114.707031 274.027344 115.367188 C 276.671875 116.359375 279.652344 116.691406 282.296875 116.03125 C 283.953125 115.699219 285.277344 115.035156 286.269531 113.382812 C 287.59375 111.066406 286.929688 108.417969 284.28125 107.09375 C 282.296875 106.433594 280.3125 106.101562 278.328125 105.773438 C 275.347656 105.441406 272.371094 104.78125 269.722656 103.785156 C 265.09375 101.800781 262.445312 98.492188 262.113281 93.199219 C 261.78125 89.558594 262.777344 86.582031 264.761719 83.933594 C 266.746094 81.617188 269.0625 79.964844 272.039062 79.300781 C 273.363281 78.96875 274.355469 78.96875 275.679688 78.640625 C 275.679688 78.640625 276.011719 78.640625 276.011719 78.308594 C 278.328125 78.640625 280.3125 78.640625 281.96875 78.640625 Z M 281.96875 78.640625 " fill-opacity="1" fill-rule="nonzero"/><path fill="#a3a3a3" d="M 40.753906 98.492188 C 40.421875 99.15625 40.09375 99.816406 39.761719 100.808594 C 37.445312 106.101562 35.128906 111.066406 32.480469 116.359375 C 31.488281 118.34375 31.488281 118.34375 29.503906 118.34375 C 28.511719 118.34375 27.1875 118.34375 26.195312 118.34375 C 25.203125 118.34375 24.871094 118.015625 24.539062 117.351562 C 22.886719 114.042969 21.5625 110.734375 19.90625 107.425781 C 18.585938 104.449219 17.261719 101.46875 15.605469 98.824219 C 15.605469 99.15625 15.605469 99.484375 15.605469 99.816406 C 15.605469 107.425781 15.605469 115.035156 15.605469 122.976562 C 15.605469 124.632812 15.605469 124.632812 13.953125 124.632812 C 11.96875 124.632812 9.652344 124.632812 7.664062 124.632812 C 6.671875 124.632812 6.34375 124.632812 6.34375 123.308594 C 6.34375 114.375 6.34375 105.441406 6.34375 96.507812 C 6.34375 91.214844 6.34375 86.25 6.34375 80.957031 C 6.34375 80.625 6.34375 80.292969 6.34375 80.292969 C 6.34375 79.964844 6.671875 79.632812 7.003906 79.632812 C 7.335938 79.632812 7.664062 79.632812 7.664062 79.632812 C 9.980469 79.632812 12.296875 79.632812 14.613281 79.632812 C 15.605469 79.632812 16.269531 79.964844 16.597656 80.957031 C 18.585938 84.59375 20.238281 88.566406 22.222656 92.207031 C 23.878906 96.175781 25.863281 99.816406 27.519531 103.785156 C 27.847656 104.449219 28.179688 105.109375 28.511719 105.773438 C 28.84375 105.441406 28.84375 105.441406 28.84375 105.109375 C 31.820312 98.824219 34.46875 92.535156 37.445312 86.25 C 38.4375 84.265625 39.429688 82.28125 40.09375 80.292969 C 40.421875 79.632812 40.753906 79.300781 41.414062 79.300781 C 44.0625 79.300781 46.710938 79.300781 49.355469 79.300781 C 50.019531 79.300781 50.347656 79.632812 50.347656 80.292969 C 50.347656 80.625 50.347656 80.625 50.347656 80.957031 C 50.347656 94.851562 50.347656 108.75 50.347656 122.648438 C 50.347656 124.300781 50.347656 124.300781 48.695312 124.300781 C 46.710938 124.300781 44.394531 124.300781 42.40625 124.300781 C 41.085938 124.300781 41.085938 124.300781 41.085938 122.976562 C 41.085938 115.035156 41.085938 107.425781 41.085938 99.484375 C 41.085938 99.484375 41.085938 99.15625 40.753906 98.492188 C 41.085938 98.492188 41.085938 98.492188 40.753906 98.492188 Z M 40.753906 98.492188 " fill-opacity="1" fill-rule="nonzero"/><path fill="#a3a3a3" d="M 231.011719 101.140625 C 232.664062 101.800781 233.65625 102.792969 234.652344 103.785156 C 235.972656 105.441406 236.636719 107.09375 236.96875 109.082031 C 237.296875 111.726562 237.296875 114.375 235.972656 117.023438 C 234.652344 119.667969 232.664062 121.65625 230.019531 122.648438 C 228.03125 123.640625 225.71875 123.96875 223.402344 124.300781 C 222.40625 124.300781 221.414062 124.300781 220.421875 124.300781 C 214.796875 124.300781 209.171875 124.300781 203.878906 124.300781 C 203.546875 124.300781 203.546875 124.300781 203.21875 124.300781 C 202.554688 124.300781 202.554688 123.96875 202.222656 123.308594 C 202.222656 122.976562 202.222656 122.976562 202.222656 122.648438 C 202.222656 108.75 202.222656 94.523438 202.222656 80.625 C 202.222656 80.292969 202.222656 80.292969 202.222656 79.964844 C 202.222656 79.300781 202.554688 79.300781 202.886719 79.300781 C 203.21875 79.300781 203.546875 79.300781 203.546875 79.300781 C 209.503906 79.300781 215.128906 79.300781 221.085938 79.300781 C 223.402344 79.300781 225.386719 79.632812 227.371094 79.964844 C 230.347656 80.625 232.664062 82.28125 234.320312 84.925781 C 235.3125 86.25 235.644531 87.90625 235.972656 89.558594 C 236.304688 91.542969 235.972656 93.199219 235.644531 95.183594 C 234.980469 97.5 233.65625 99.15625 231.671875 100.476562 C 231.671875 100.476562 231.34375 100.808594 231.011719 101.140625 Z M 212.480469 105.441406 C 212.480469 105.773438 212.480469 106.101562 212.480469 106.101562 C 212.480469 109.082031 212.480469 112.390625 212.480469 115.367188 C 212.480469 116.359375 212.480469 116.359375 213.472656 116.359375 C 216.121094 116.359375 218.769531 116.359375 221.414062 116.359375 C 224.394531 116.359375 226.710938 115.035156 227.371094 111.398438 C 227.703125 109.410156 227.039062 107.425781 225.054688 106.101562 C 223.730469 105.441406 222.40625 105.109375 221.085938 105.109375 C 218.769531 105.109375 216.121094 105.109375 213.804688 105.109375 C 213.144531 105.441406 212.8125 105.441406 212.480469 105.441406 Z M 212.480469 87.574219 C 212.480469 87.90625 212.480469 88.234375 212.480469 88.566406 C 212.480469 91.214844 212.480469 93.859375 212.480469 96.507812 C 212.480469 97.832031 212.480469 97.832031 213.804688 97.832031 C 216.121094 97.832031 218.105469 97.832031 220.421875 97.832031 C 221.414062 97.832031 222.40625 97.5 223.402344 97.167969 C 225.386719 96.507812 226.378906 94.851562 226.378906 92.867188 C 226.378906 90.882812 225.71875 89.226562 224.0625 88.234375 C 223.402344 87.90625 222.40625 87.574219 221.746094 87.574219 C 219.097656 87.574219 216.121094 87.574219 213.472656 87.574219 C 212.8125 87.242188 212.480469 87.574219 212.480469 87.574219 Z M 212.480469 87.574219 " fill-opacity="1" fill-rule="nonzero"/><path fill="#a3a3a3" d="M 52.664062 221.582031 C 52.664062 221.25 52.664062 220.917969 52.664062 220.589844 C 52.664062 211.984375 52.664062 203.050781 52.664062 194.449219 C 52.664062 193.125 52.664062 192.792969 53.988281 192.792969 C 56.304688 192.792969 58.289062 192.792969 60.277344 192.792969 C 61.597656 192.792969 61.597656 192.792969 61.597656 194.117188 C 61.597656 208.34375 61.597656 222.242188 61.597656 236.46875 C 61.597656 237.792969 61.597656 237.792969 60.277344 237.792969 C 57.960938 237.792969 55.3125 237.792969 52.996094 237.792969 C 52.003906 237.792969 51.671875 237.464844 51.011719 236.800781 C 46.046875 228.53125 41.414062 220.257812 36.453125 212.316406 C 35.789062 211.324219 35.460938 210.332031 34.796875 209.667969 L 34.46875 209.339844 C 34.46875 209.667969 34.46875 210 34.46875 210.332031 C 34.46875 218.933594 34.46875 227.535156 34.46875 236.46875 C 34.46875 238.125 34.46875 238.125 32.8125 238.125 C 30.496094 238.125 28.511719 238.125 26.527344 238.125 C 25.53125 238.125 25.203125 238.125 25.203125 236.800781 C 25.203125 222.574219 25.203125 208.34375 25.203125 194.449219 C 25.203125 193.457031 25.203125 193.125 26.527344 193.125 C 28.84375 193.125 31.488281 193.125 33.804688 193.125 C 34.796875 193.125 35.128906 193.457031 35.789062 194.117188 C 40.421875 202.058594 45.386719 210.332031 50.019531 218.273438 C 50.679688 219.265625 51.34375 220.257812 52.003906 221.25 C 52.003906 221.25 52.003906 221.582031 52.664062 221.582031 C 52.335938 221.582031 52.335938 221.582031 52.664062 221.582031 Z M 52.664062 221.582031 " fill-opacity="1" fill-rule="nonzero"/><path fill="#a3a3a3" d="M 263.769531 219.265625 C 264.761719 221.25 265.753906 222.90625 266.746094 224.558594 C 268.402344 227.535156 270.054688 230.515625 271.710938 233.824219 C 272.039062 234.816406 272.703125 235.476562 273.03125 236.46875 C 273.695312 237.464844 273.363281 237.792969 272.371094 237.792969 C 269.394531 237.792969 266.414062 237.792969 263.105469 237.792969 C 262.445312 237.792969 262.113281 237.464844 261.78125 236.800781 C 259.136719 231.507812 256.820312 226.542969 254.171875 221.25 C 254.171875 220.917969 253.84375 220.917969 253.84375 220.589844 C 251.855469 220.589844 249.871094 220.589844 247.886719 220.589844 C 247.554688 220.589844 247.222656 220.917969 247.222656 221.25 C 247.222656 221.582031 247.222656 221.910156 247.222656 221.910156 C 247.222656 226.542969 247.222656 231.507812 247.222656 236.140625 C 247.222656 236.46875 247.222656 236.800781 247.222656 236.800781 C 247.222656 237.132812 246.894531 237.132812 246.5625 237.464844 C 246.230469 237.464844 246.230469 237.464844 245.902344 237.464844 C 243.253906 237.464844 240.605469 237.464844 237.960938 237.464844 C 236.636719 237.464844 236.636719 237.464844 236.636719 236.140625 C 236.636719 221.910156 236.636719 208.015625 236.636719 193.785156 C 236.636719 192.464844 236.636719 192.464844 237.960938 192.464844 C 244.246094 192.464844 250.203125 192.464844 256.488281 192.464844 C 259.46875 192.464844 262.113281 193.125 264.761719 194.117188 C 270.71875 197.09375 273.03125 203.382812 272.039062 209.007812 C 271.046875 213.308594 268.730469 216.285156 265.09375 218.273438 C 264.429688 218.933594 264.097656 218.933594 263.769531 219.265625 Z M 246.5625 206.691406 C 246.5625 208.015625 246.5625 209.339844 246.5625 210.992188 C 246.5625 212.316406 246.5625 212.316406 247.886719 212.316406 C 250.203125 212.316406 252.519531 212.316406 254.835938 212.316406 C 255.828125 212.316406 256.820312 211.984375 257.8125 211.984375 C 261.121094 210.992188 262.777344 207.023438 260.789062 204.042969 C 259.796875 202.390625 258.144531 201.726562 256.488281 201.398438 C 253.511719 201.066406 250.53125 201.398438 247.222656 201.398438 C 246.5625 201.398438 246.5625 201.398438 246.5625 202.058594 C 246.5625 203.382812 246.5625 205.035156 246.5625 206.691406 Z M 246.5625 206.691406 " fill-opacity="1" fill-rule="nonzero"/><path fill="#a3a3a3" d="M 75.164062 275.84375 C 76.15625 277.5 76.820312 279.15625 77.8125 280.808594 C 79.46875 283.785156 80.789062 286.765625 82.445312 289.742188 C 83.105469 290.734375 83.769531 292.058594 84.097656 293.050781 C 84.429688 294.042969 84.429688 294.375 83.4375 294.375 C 80.460938 294.375 77.152344 294.375 74.171875 294.375 C 73.511719 294.375 72.847656 294.042969 72.847656 293.382812 C 70.203125 288.417969 67.886719 283.125 65.238281 278.160156 C 65.238281 277.832031 64.90625 277.832031 64.90625 277.5 C 62.59375 277.5 60.605469 277.5 58.289062 277.5 C 58.289062 277.832031 58.289062 278.160156 58.289062 278.824219 C 58.289062 283.457031 58.289062 288.417969 58.289062 293.050781 C 58.289062 294.707031 58.289062 294.707031 56.636719 294.707031 C 54.320312 294.707031 52.003906 294.707031 49.6875 294.707031 L 49.355469 294.707031 C 48.363281 294.707031 48.03125 294.707031 48.03125 293.382812 C 48.03125 279.15625 48.03125 264.925781 48.03125 250.699219 C 48.03125 249.707031 48.03125 249.707031 49.027344 249.707031 C 55.644531 249.707031 61.929688 249.707031 68.546875 249.707031 C 71.855469 249.707031 74.835938 250.699219 77.8125 252.351562 C 81.453125 254.667969 83.105469 257.976562 83.4375 262.28125 C 83.769531 265.257812 83.105469 267.90625 81.78125 270.21875 C 80.460938 272.535156 78.472656 274.191406 76.15625 275.515625 C 75.828125 275.515625 75.496094 275.515625 75.164062 275.84375 Z M 58.289062 263.273438 C 58.289062 264.59375 58.289062 266.25 58.289062 267.574219 C 58.289062 268.566406 58.289062 268.898438 59.613281 268.898438 C 62.261719 268.898438 64.578125 268.898438 67.222656 268.898438 C 67.886719 268.898438 68.878906 268.898438 69.539062 268.566406 C 73.84375 267.242188 74.503906 262.28125 72.1875 259.964844 C 70.863281 258.640625 69.539062 257.976562 67.886719 257.976562 C 65.238281 257.976562 62.261719 257.976562 59.613281 257.976562 C 58.621094 257.976562 58.621094 257.976562 58.621094 258.96875 C 58.289062 260.292969 58.289062 261.617188 58.289062 263.273438 Z M 58.289062 263.273438 " fill-opacity="1" fill-rule="nonzero"/><path fill="#a3a3a3" d="M 70.53125 214.964844 C 70.53125 208.015625 70.53125 201.066406 70.53125 194.117188 C 70.53125 193.785156 70.53125 193.457031 70.53125 193.457031 C 70.53125 192.792969 70.863281 192.792969 71.527344 192.464844 C 71.855469 192.464844 71.855469 192.464844 72.1875 192.464844 C 77.8125 192.464844 83.4375 192.464844 88.730469 192.464844 C 91.378906 192.464844 94.355469 192.792969 97.003906 193.785156 C 100.644531 195.109375 103.289062 197.757812 104.613281 201.066406 C 105.605469 203.050781 105.9375 205.035156 105.9375 207.351562 C 105.9375 209.339844 106.269531 211.324219 106.269531 213.308594 C 106.269531 215.957031 106.269531 218.601562 106.269531 221.25 C 106.269531 224.226562 105.605469 226.875 104.28125 229.523438 C 102.960938 231.839844 101.304688 233.824219 98.65625 235.148438 C 95.679688 236.800781 92.703125 237.464844 89.394531 237.464844 C 83.4375 237.464844 77.480469 237.464844 71.855469 237.464844 C 71.527344 237.464844 71.527344 237.464844 71.195312 237.464844 C 70.863281 237.464844 70.53125 237.132812 70.53125 236.800781 C 70.53125 236.46875 70.53125 236.140625 70.53125 235.808594 C 70.53125 228.859375 70.53125 221.910156 70.53125 214.964844 Z M 81.121094 201.398438 C 81.121094 201.726562 81.121094 202.058594 81.121094 202.71875 C 81.121094 210.992188 81.121094 219.59375 81.121094 227.867188 C 81.121094 228.859375 81.121094 229.191406 82.445312 229.191406 C 84.429688 229.191406 86.746094 229.191406 88.730469 228.859375 C 89.722656 228.859375 91.046875 228.53125 92.039062 228.199219 C 92.703125 227.867188 93.695312 227.535156 94.027344 226.875 C 95.019531 225.882812 95.679688 224.558594 96.011719 222.90625 C 96.34375 221.25 96.34375 219.59375 96.34375 217.941406 C 96.671875 214.964844 96.671875 211.65625 96.011719 208.675781 C 95.347656 204.707031 93.363281 202.058594 89.0625 201.726562 C 87.738281 201.398438 86.085938 201.726562 84.761719 201.726562 C 83.4375 201.398438 82.445312 201.398438 81.121094 201.398438 Z M 81.121094 201.398438 " fill-opacity="1" fill-rule="nonzero"/><path fill="#a3a3a3" d="M 32.8125 162.683594 C 32.480469 162.683594 31.820312 162.683594 31.488281 162.683594 C 26.855469 162.683594 22.222656 162.683594 17.59375 162.683594 C 17.261719 162.683594 17.261719 162.683594 16.929688 162.683594 C 16.597656 162.683594 16.269531 163.015625 16.269531 163.34375 C 16.269531 163.675781 16.269531 164.007812 16.269531 164.007812 C 16.269531 169.300781 16.269531 174.265625 16.269531 179.558594 C 16.269531 180.882812 16.269531 180.882812 14.945312 180.882812 C 12.296875 180.882812 9.980469 180.882812 7.335938 180.882812 C 7.003906 180.882812 6.671875 180.882812 6.671875 180.882812 C 6.34375 180.882812 6.011719 180.550781 6.011719 180.21875 C 6.011719 179.890625 6.011719 179.558594 6.011719 179.558594 C 6.011719 165.660156 6.011719 151.433594 6.011719 137.535156 C 6.011719 137.207031 6.011719 137.207031 6.011719 136.875 C 6.011719 136.214844 6.011719 136.214844 6.671875 136.214844 C 9.652344 136.214844 12.296875 136.214844 15.277344 136.214844 C 15.9375 136.214844 16.269531 136.214844 16.269531 137.535156 C 16.269531 142.5 16.269531 147.464844 16.269531 152.757812 C 16.269531 154.410156 16.269531 154.410156 17.921875 154.410156 C 22.222656 154.410156 26.855469 154.410156 31.488281 154.410156 C 31.820312 154.410156 32.152344 154.410156 32.152344 154.410156 C 32.480469 154.410156 32.8125 154.082031 32.8125 153.75 C 32.8125 153.417969 32.8125 153.089844 32.8125 153.089844 C 32.8125 148.125 32.8125 143.160156 32.8125 138.199219 C 32.8125 137.867188 32.8125 137.867188 32.8125 137.535156 C 32.8125 136.875 33.144531 136.875 33.472656 136.875 C 34.136719 136.875 35.128906 136.875 35.789062 136.875 C 37.777344 136.875 39.761719 136.875 41.414062 136.875 C 42.738281 136.875 42.738281 136.875 42.738281 138.199219 C 42.738281 146.800781 42.738281 155.074219 42.738281 163.675781 C 42.738281 169.300781 42.738281 174.59375 42.738281 180.21875 C 42.738281 180.550781 42.738281 180.882812 42.738281 180.882812 C 42.738281 181.214844 42.40625 181.542969 42.078125 181.542969 C 41.746094 181.542969 41.746094 181.542969 41.414062 181.542969 C 38.769531 181.542969 36.453125 181.542969 33.804688 181.542969 C 33.472656 181.542969 33.472656 181.542969 33.144531 181.542969 C 32.480469 181.542969 32.480469 181.214844 32.480469 180.550781 C 32.480469 180.21875 32.480469 180.21875 32.480469 179.890625 C 32.480469 174.925781 32.480469 169.632812 32.480469 164.667969 C 32.8125 163.675781 32.8125 163.34375 32.8125 162.683594 Z M 32.8125 162.683594 " fill-opacity="1" fill-rule="nonzero"/><path fill="#a3a3a3" d="M 314.394531 97.167969 C 314.722656 97.167969 315.054688 97.167969 315.386719 97.167969 C 320.019531 97.167969 324.652344 97.167969 329.28125 97.167969 C 329.613281 97.167969 329.613281 97.167969 329.945312 97.167969 C 330.277344 97.167969 330.605469 96.839844 330.605469 96.507812 C 330.605469 96.175781 330.605469 95.84375 330.605469 95.84375 C 330.605469 90.882812 330.605469 85.917969 330.605469 80.957031 C 330.605469 80.625 330.605469 80.625 330.605469 80.292969 C 330.605469 79.632812 330.9375 79.632812 331.269531 79.300781 C 331.597656 79.300781 331.597656 79.300781 331.929688 79.300781 C 334.578125 79.300781 336.894531 79.300781 339.539062 79.300781 C 339.871094 79.300781 339.871094 79.300781 340.203125 79.300781 C 340.53125 79.300781 340.863281 79.632812 340.863281 79.964844 C 340.863281 80.292969 340.863281 80.292969 340.863281 80.625 C 340.863281 94.523438 340.863281 108.75 340.863281 122.648438 L 340.863281 122.976562 C 340.863281 123.96875 340.863281 123.96875 339.871094 123.96875 C 337.222656 123.96875 334.578125 123.96875 331.929688 123.96875 C 330.9375 123.96875 330.9375 123.96875 330.9375 122.976562 C 330.9375 117.683594 330.9375 112.71875 330.9375 107.425781 C 330.9375 107.09375 330.9375 107.09375 330.9375 106.765625 C 330.9375 105.773438 330.9375 105.773438 329.945312 105.773438 C 325.3125 105.773438 320.679688 105.773438 315.714844 105.773438 C 315.386719 105.773438 315.054688 105.773438 314.722656 105.773438 C 314.722656 106.101562 314.722656 106.765625 314.722656 107.09375 C 314.722656 112.058594 314.722656 117.351562 314.722656 122.316406 C 314.722656 122.648438 314.722656 122.648438 314.722656 122.976562 C 314.722656 123.96875 314.394531 123.96875 313.730469 123.96875 C 311.085938 123.96875 308.769531 123.96875 306.121094 123.96875 C 305.789062 123.96875 305.789062 123.96875 305.460938 123.96875 C 304.796875 123.96875 304.796875 123.640625 304.796875 123.308594 C 304.796875 122.976562 304.796875 122.976562 304.796875 122.648438 C 304.796875 108.75 304.796875 94.523438 304.796875 80.625 C 304.796875 80.292969 304.796875 80.292969 304.796875 79.964844 C 304.796875 79.300781 305.128906 79.300781 305.460938 79.300781 C 305.789062 79.300781 305.789062 79.300781 306.121094 79.300781 C 308.769531 79.300781 311.085938 79.300781 313.730469 79.300781 C 315.054688 79.300781 315.054688 79.632812 315.054688 80.625 C 315.054688 85.589844 315.054688 90.882812 315.054688 95.84375 C 314.394531 96.507812 314.394531 96.839844 314.394531 97.167969 Z M 314.394531 97.167969 " fill-opacity="1" fill-rule="nonzero"/><path fill="#a3a3a3" d="M 193.289062 95.183594 C 193.289062 99.484375 193.289062 104.117188 193.289062 108.417969 C 193.289062 111.398438 192.628906 114.375 190.972656 117.023438 C 188.988281 120.332031 186.011719 122.648438 182.703125 123.96875 C 177.40625 125.625 172.445312 125.625 167.152344 123.640625 C 162.1875 121.65625 158.878906 118.34375 157.554688 113.050781 C 157.222656 111.398438 156.894531 109.742188 156.894531 107.757812 C 156.894531 98.824219 156.894531 89.890625 156.894531 80.957031 C 156.894531 80.625 156.894531 80.625 156.894531 80.292969 C 156.894531 79.632812 157.222656 79.632812 157.554688 79.300781 C 157.886719 79.300781 157.886719 79.300781 158.21875 79.300781 C 160.53125 79.300781 162.847656 79.300781 165.496094 79.300781 C 165.828125 79.300781 166.15625 79.300781 166.15625 79.300781 C 166.488281 79.300781 166.820312 79.632812 166.820312 79.964844 C 166.820312 80.292969 166.820312 80.625 166.820312 80.957031 C 166.820312 90.21875 166.820312 99.15625 166.820312 108.417969 C 166.820312 110.074219 167.152344 112.058594 168.472656 113.382812 C 169.796875 115.035156 171.78125 116.03125 173.769531 116.359375 C 176.746094 116.691406 179.0625 116.03125 181.046875 113.382812 C 181.710938 112.390625 182.371094 111.066406 182.371094 109.742188 C 182.371094 108.75 182.703125 108.089844 182.703125 107.09375 C 182.703125 98.160156 182.703125 89.558594 182.703125 80.625 C 182.703125 79.300781 182.703125 79.300781 184.027344 79.300781 C 186.34375 79.300781 188.988281 79.300781 191.304688 79.300781 C 192.628906 79.300781 192.628906 79.632812 192.628906 80.625 C 193.289062 85.589844 193.289062 90.21875 193.289062 95.183594 Z M 193.289062 95.183594 " fill-opacity="1" fill-rule="nonzero"/><path fill="#a3a3a3" d="M 139.355469 207.683594 C 139.355469 203.050781 139.355469 198.75 139.355469 194.117188 C 139.355469 193.785156 139.355469 193.785156 139.355469 193.457031 C 139.355469 192.792969 139.6875 192.464844 140.347656 192.464844 C 140.347656 192.464844 140.347656 192.464844 140.679688 192.464844 C 143.328125 192.464844 145.972656 192.464844 148.621094 192.464844 C 149.613281 192.464844 149.945312 192.792969 149.945312 193.785156 C 149.945312 203.050781 149.945312 211.984375 149.945312 221.25 C 149.945312 224.226562 149.28125 226.875 147.960938 229.523438 C 146.636719 232.5 144.320312 234.484375 141.671875 236.140625 C 139.355469 237.464844 137.039062 238.125 134.394531 238.125 C 130.421875 238.457031 126.453125 238.125 122.8125 236.46875 C 118.84375 234.816406 116.195312 231.839844 114.539062 227.867188 C 113.878906 225.882812 113.546875 223.566406 113.546875 221.25 C 113.546875 212.316406 113.546875 203.050781 113.546875 194.117188 C 113.546875 192.464844 113.546875 192.464844 114.871094 192.464844 C 117.1875 192.464844 119.835938 192.464844 122.152344 192.464844 C 122.480469 192.464844 122.8125 192.464844 122.8125 192.464844 C 123.144531 192.464844 123.472656 192.792969 123.472656 193.125 C 123.472656 193.457031 123.472656 193.785156 123.472656 194.117188 C 123.472656 203.050781 123.472656 211.984375 123.472656 220.917969 C 123.472656 222.574219 123.804688 224.226562 124.46875 225.550781 C 125.460938 227.535156 126.78125 228.53125 129.097656 229.191406 C 131.085938 229.851562 133.070312 229.523438 134.722656 228.859375 C 137.371094 227.867188 138.695312 225.882812 139.027344 222.90625 C 139.027344 222.242188 139.355469 221.25 139.355469 220.589844 C 139.355469 216.617188 139.355469 212.316406 139.355469 207.683594 Z M 139.355469 207.683594 " fill-opacity="1" fill-rule="nonzero"/><path fill="#a3a3a3" d="M 62.261719 144.484375 C 62.261719 147.792969 62.261719 150.773438 62.261719 154.082031 C 62.59375 154.082031 62.921875 154.082031 63.585938 154.082031 C 68.546875 154.082031 73.84375 154.082031 78.804688 154.082031 C 79.136719 154.082031 79.136719 154.082031 79.46875 154.082031 C 80.128906 154.082031 80.128906 154.410156 80.128906 154.742188 C 80.128906 155.40625 80.128906 155.734375 80.128906 156.398438 C 80.128906 158.050781 80.128906 159.375 80.128906 161.03125 C 80.128906 162.351562 80.128906 162.351562 78.804688 162.351562 C 73.84375 162.351562 68.546875 162.351562 63.585938 162.351562 C 63.253906 162.351562 62.59375 162.351562 62.261719 162.351562 C 62.261719 165.660156 62.261719 168.96875 62.261719 172.28125 C 62.59375 172.28125 62.921875 172.28125 63.585938 172.28125 C 69.871094 172.28125 75.828125 172.28125 82.113281 172.28125 C 82.445312 172.28125 82.445312 172.28125 82.777344 172.28125 C 83.769531 172.28125 83.769531 172.28125 83.769531 173.273438 C 83.769531 175.257812 83.769531 177.574219 83.769531 179.558594 C 83.769531 180.550781 83.4375 180.550781 82.777344 180.550781 C 82.445312 180.550781 82.445312 180.550781 82.113281 180.550781 C 72.519531 180.550781 62.921875 180.550781 53.65625 180.550781 C 52.003906 180.550781 52.003906 180.550781 52.003906 178.898438 C 52.003906 165 52.003906 151.101562 52.003906 137.207031 C 52.003906 136.875 52.003906 136.875 52.003906 136.542969 C 52.003906 135.882812 52.335938 135.550781 52.996094 135.550781 C 53.328125 135.550781 53.328125 135.550781 53.65625 135.550781 C 63.253906 135.550781 72.847656 135.550781 82.445312 135.550781 C 82.777344 135.550781 82.777344 135.550781 83.105469 135.550781 C 84.097656 135.550781 84.097656 135.550781 84.097656 136.542969 C 84.097656 138.53125 84.097656 140.515625 84.097656 142.5 C 84.097656 143.824219 84.097656 143.824219 82.777344 143.824219 C 76.488281 143.824219 70.203125 143.824219 64.246094 143.824219 C 63.253906 144.484375 62.59375 144.484375 62.261719 144.484375 Z M 62.261719 144.484375 " fill-opacity="1" fill-rule="nonzero"/><path fill="#a3a3a3" d="M 308.4375 219.265625 C 308.4375 219.59375 308.4375 219.925781 308.4375 220.257812 C 308.4375 222.90625 308.4375 225.21875 308.4375 227.867188 C 308.4375 228.859375 308.4375 229.191406 309.761719 229.191406 C 316.046875 229.191406 322.335938 229.191406 328.289062 229.191406 C 330.277344 229.191406 329.945312 229.523438 329.945312 230.84375 C 329.945312 232.832031 329.945312 234.816406 329.945312 236.46875 C 329.945312 237.464844 329.945312 237.792969 328.621094 237.792969 C 322.335938 237.792969 316.378906 237.792969 310.09375 237.792969 C 306.453125 237.792969 303.144531 237.792969 299.503906 237.792969 C 299.171875 237.792969 298.84375 237.792969 298.84375 237.792969 C 298.511719 237.792969 298.179688 237.464844 298.179688 237.132812 C 298.179688 236.800781 298.179688 236.800781 298.179688 236.46875 C 298.179688 222.574219 298.179688 208.34375 298.179688 194.449219 C 298.179688 194.117188 298.179688 194.117188 298.179688 193.785156 C 298.179688 193.457031 298.511719 193.125 298.84375 193.125 C 299.171875 193.125 299.503906 193.125 299.835938 193.125 C 309.429688 193.125 318.695312 193.125 328.289062 193.125 C 329.945312 193.125 329.945312 193.125 329.945312 194.78125 C 329.945312 196.433594 329.945312 198.417969 329.945312 200.074219 C 329.945312 201.398438 329.945312 201.398438 328.621094 201.398438 C 322.664062 201.398438 316.378906 201.398438 310.421875 201.398438 C 308.4375 201.398438 308.769531 201.398438 308.769531 203.050781 C 308.769531 205.367188 308.769531 207.683594 308.769531 209.667969 C 308.769531 210.660156 308.769531 210.992188 310.09375 210.992188 C 315.054688 210.992188 320.347656 210.992188 325.3125 210.992188 C 325.644531 210.992188 325.644531 210.992188 325.972656 210.992188 C 326.96875 210.992188 326.96875 211.324219 326.96875 211.984375 C 326.96875 213.96875 326.96875 215.957031 326.96875 217.941406 C 326.96875 218.933594 326.636719 219.265625 325.644531 219.265625 C 320.679688 219.265625 315.386719 219.265625 310.421875 219.265625 C 309.429688 219.265625 309.097656 219.265625 308.4375 219.265625 Z M 308.4375 219.265625 " fill-opacity="1" fill-rule="nonzero"/><path fill="#a3a3a3" d="M 173.769531 238.457031 C 168.472656 238.457031 163.511719 237.132812 158.878906 234.816406 C 157.886719 234.15625 156.894531 233.492188 155.902344 232.832031 C 154.90625 232.167969 154.90625 231.839844 155.570312 230.84375 C 156.894531 229.523438 158.21875 227.867188 159.539062 226.542969 C 159.871094 226.214844 159.871094 226.214844 160.203125 225.882812 C 160.863281 225.21875 161.195312 225.21875 161.855469 225.550781 C 163.511719 226.542969 165.164062 227.867188 166.820312 228.53125 C 170.128906 229.851562 173.4375 230.515625 177.078125 229.851562 C 178.730469 229.523438 180.386719 228.53125 181.378906 226.875 C 182.371094 224.558594 181.710938 222.242188 179.0625 221.25 C 177.40625 220.589844 175.753906 220.257812 174.097656 219.925781 C 171.453125 219.59375 168.472656 219.265625 166.15625 218.273438 C 163.84375 217.28125 161.527344 216.285156 159.871094 214.300781 C 158.546875 212.648438 157.886719 210.992188 157.554688 209.007812 C 156.894531 206.03125 157.222656 203.382812 158.546875 200.734375 C 159.871094 197.425781 162.519531 195.109375 165.828125 193.785156 C 168.144531 192.792969 170.128906 192.464844 172.445312 192.464844 C 177.738281 192.132812 182.703125 193.125 187.664062 195.441406 C 188.328125 195.773438 189.320312 196.433594 189.980469 196.765625 C 190.3125 197.09375 190.644531 197.425781 190.3125 197.757812 C 188.988281 199.742188 187.664062 201.726562 186.34375 203.714844 C 186.011719 204.375 185.679688 204.375 184.6875 204.042969 C 183.363281 203.382812 182.039062 202.71875 180.71875 202.058594 C 178.402344 201.066406 176.085938 200.734375 173.4375 200.734375 C 171.78125 200.734375 170.128906 201.398438 168.804688 202.390625 C 167.480469 203.714844 166.820312 207.023438 169.46875 208.675781 C 170.789062 209.339844 172.113281 210 173.4375 210 C 175.09375 210.332031 177.078125 210.660156 179.0625 210.660156 C 181.710938 210.992188 184.6875 211.984375 187.003906 213.308594 C 189.652344 214.964844 191.304688 217.28125 191.96875 220.257812 C 192.628906 222.90625 192.628906 225.550781 191.636719 228.199219 C 190.3125 231.839844 187.996094 234.15625 184.6875 235.808594 C 182.039062 237.132812 179.0625 237.792969 176.414062 237.792969 C 175.09375 238.125 174.429688 238.457031 173.769531 238.457031 Z M 173.769531 238.457031 " fill-opacity="1" fill-rule="nonzero"/><path fill="#a3a3a3" d="M 353.769531 238.457031 C 348.472656 238.457031 343.84375 237.464844 339.210938 235.148438 C 337.886719 234.484375 336.5625 233.492188 335.238281 232.832031 C 334.578125 232.167969 334.578125 231.839844 335.238281 231.175781 C 336.894531 229.523438 338.21875 227.867188 339.871094 226.214844 C 340.53125 225.21875 340.863281 225.21875 341.855469 225.882812 C 344.171875 227.535156 346.820312 228.859375 349.796875 229.523438 C 352.445312 230.183594 355.421875 230.515625 358.070312 229.191406 C 359.722656 228.53125 360.71875 227.535156 361.378906 225.882812 C 362.039062 223.898438 361.378906 221.910156 359.394531 220.917969 C 358.070312 220.257812 356.746094 219.925781 355.09375 219.59375 C 352.777344 219.265625 350.789062 218.933594 348.472656 218.601562 C 346.15625 218.273438 344.171875 217.28125 342.1875 216.285156 C 338.546875 213.96875 336.894531 210.992188 336.894531 206.691406 C 336.894531 204.707031 336.894531 202.71875 337.886719 200.734375 C 339.210938 197.757812 341.195312 195.441406 344.171875 193.785156 C 346.820312 192.464844 349.46875 191.800781 352.113281 191.800781 C 356.414062 191.46875 360.386719 192.132812 364.355469 193.457031 C 366.011719 194.117188 367.996094 195.109375 369.652344 196.101562 C 370.3125 196.765625 370.644531 196.765625 369.980469 197.757812 C 368.65625 199.742188 367.335938 201.398438 366.011719 203.382812 C 365.679688 204.042969 365.347656 204.042969 364.355469 203.714844 C 362.703125 203.050781 361.378906 202.058594 359.722656 201.398438 C 357.40625 200.40625 354.761719 200.074219 352.113281 200.40625 C 351.121094 200.40625 350.128906 200.734375 349.46875 201.398438 C 347.152344 202.71875 346.488281 206.691406 349.796875 208.675781 C 351.78125 209.667969 353.769531 210 355.753906 210.332031 C 358.402344 210.660156 361.046875 210.992188 363.695312 211.984375 C 366.011719 212.648438 367.996094 213.96875 369.320312 215.625 C 370.972656 217.609375 371.96875 219.925781 372.296875 222.242188 C 372.296875 223.898438 372.296875 225.21875 372.296875 226.875 C 371.636719 231.175781 368.988281 234.15625 365.347656 235.808594 C 362.703125 237.132812 359.394531 237.792969 356.414062 238.125 C 355.09375 238.125 354.097656 238.457031 353.769531 238.457031 Z M 353.769531 238.457031 " fill-opacity="1" fill-rule="nonzero"/><path fill="#a3a3a3" d="M 117.847656 172.609375 C 112.222656 172.609375 106.929688 172.609375 101.304688 172.609375 C 101.304688 172.941406 100.972656 173.273438 100.972656 173.933594 C 100.3125 175.917969 99.652344 178.234375 98.988281 180.21875 C 98.65625 181.214844 98.328125 181.214844 97.335938 181.214844 C 94.6875 181.214844 92.039062 181.214844 89.394531 181.214844 C 89.0625 181.214844 88.730469 181.214844 88.070312 180.882812 C 88.402344 180.21875 88.402344 179.890625 88.402344 179.558594 C 92.371094 168.640625 96.671875 157.71875 100.644531 146.800781 C 101.96875 143.492188 102.960938 140.515625 104.28125 137.207031 C 104.613281 136.214844 104.613281 136.214844 105.9375 136.214844 C 108.585938 136.214844 111.230469 136.214844 113.878906 136.214844 C 114.871094 136.214844 115.203125 136.214844 115.53125 137.535156 C 117.519531 142.5 119.171875 147.792969 121.15625 152.757812 C 123.472656 159.375 126.121094 165.992188 128.4375 172.609375 C 129.429688 175.257812 130.09375 177.574219 131.085938 180.21875 C 131.414062 181.214844 131.414062 181.542969 130.421875 181.542969 C 127.777344 181.542969 125.128906 181.542969 122.480469 181.542969 C 121.488281 181.542969 121.15625 181.542969 120.828125 180.550781 C 120.164062 178.234375 119.171875 176.25 118.511719 173.933594 C 117.847656 172.941406 117.847656 172.941406 117.847656 172.609375 Z M 114.871094 164.007812 C 113.21875 158.714844 111.230469 153.75 109.578125 148.457031 L 109.246094 148.457031 C 107.59375 153.417969 105.605469 158.714844 103.953125 164.007812 C 107.921875 164.007812 111.230469 164.007812 114.871094 164.007812 Z M 114.871094 164.007812 " fill-opacity="1" fill-rule="nonzero"/><path fill="#a3a3a3" d="M 177.078125 271.875 C 177.078125 264.925781 177.078125 257.976562 177.078125 251.359375 C 177.078125 251.03125 177.078125 251.03125 177.078125 250.699219 C 177.078125 249.707031 177.078125 249.375 178.402344 249.375 C 184.027344 249.375 189.652344 249.375 195.277344 249.375 C 197.59375 249.375 200.238281 249.375 202.554688 250.367188 C 206.527344 251.691406 209.503906 253.675781 211.15625 257.648438 C 213.472656 262.941406 213.144531 268.234375 209.503906 273.199219 C 207.519531 275.84375 204.539062 277.167969 201.5625 278.160156 C 199.90625 278.492188 197.921875 278.824219 196.269531 278.824219 C 193.621094 278.824219 191.304688 278.824219 188.65625 278.824219 C 187.335938 278.824219 187.335938 278.824219 187.335938 280.148438 C 187.335938 284.449219 187.335938 289.082031 187.335938 293.382812 C 187.335938 293.714844 187.335938 294.042969 187.335938 294.042969 C 187.335938 294.375 187.003906 294.707031 186.671875 294.707031 C 186.34375 294.707031 186.011719 294.707031 186.011719 294.707031 C 183.695312 294.707031 181.378906 294.707031 178.730469 294.707031 L 178.402344 294.707031 C 177.40625 294.707031 177.078125 294.707031 177.078125 293.382812 C 177.078125 285.773438 177.078125 278.824219 177.078125 271.875 Z M 187.335938 263.601562 C 187.335938 265.257812 187.335938 266.910156 187.335938 268.566406 C 187.335938 269.558594 187.335938 269.558594 188.328125 269.558594 C 190.644531 269.558594 192.960938 269.558594 195.277344 269.558594 C 195.9375 269.558594 196.929688 269.558594 197.59375 269.226562 C 200.902344 268.566406 202.554688 265.917969 202.222656 262.28125 C 202.222656 261.285156 201.5625 260.292969 200.902344 259.632812 C 199.578125 257.976562 197.921875 257.316406 195.9375 257.316406 C 193.289062 257.316406 190.644531 257.316406 187.996094 257.316406 C 187.003906 257.316406 187.003906 257.316406 187.003906 258.308594 C 187.335938 260.292969 187.335938 261.949219 187.335938 263.601562 Z M 187.335938 263.601562 " fill-opacity="1" fill-rule="nonzero"/><path fill="#a3a3a3" d="M 166.820312 136.214844 C 167.152344 136.542969 166.820312 137.207031 166.820312 137.535156 C 165.496094 141.507812 164.171875 145.476562 162.847656 149.449219 C 159.539062 159.375 155.902344 168.96875 152.59375 178.898438 C 152.59375 179.226562 152.261719 179.558594 152.261719 179.890625 C 151.929688 180.882812 151.597656 181.214844 150.605469 181.214844 C 148.289062 181.214844 145.972656 181.214844 143.65625 181.214844 C 142.335938 181.214844 142.335938 181.214844 142.003906 179.890625 C 141.34375 178.234375 141.011719 176.582031 140.347656 174.925781 C 137.703125 167.316406 135.054688 160.035156 132.738281 152.425781 C 131.085938 147.464844 129.097656 142.167969 127.445312 137.207031 C 127.113281 136.214844 127.445312 135.882812 128.4375 135.882812 C 131.085938 135.882812 134.0625 135.882812 136.710938 135.882812 C 137.703125 135.882812 137.703125 135.882812 138.03125 136.875 C 140.347656 144.15625 142.664062 151.765625 145.3125 159.042969 C 145.972656 161.03125 146.636719 163.34375 147.296875 165.332031 C 147.296875 165.332031 147.296875 165.660156 147.628906 165.992188 C 147.628906 165.660156 147.960938 165.660156 147.960938 165.332031 C 150.605469 156.726562 153.253906 148.457031 155.902344 139.851562 C 156.230469 138.859375 156.5625 137.867188 156.894531 136.542969 C 157.222656 135.882812 157.222656 135.550781 158.21875 135.550781 C 161.195312 135.550781 163.84375 135.550781 166.820312 135.550781 C 166.488281 136.214844 166.820312 136.214844 166.820312 136.214844 Z M 166.820312 136.214844 " fill-opacity="1" fill-rule="nonzero"/><path fill="#a3a3a3" d="M 189.652344 153.089844 C 190.3125 152.09375 190.644531 151.101562 191.304688 150.109375 C 193.621094 145.808594 195.9375 141.507812 197.921875 137.207031 C 198.253906 136.542969 198.914062 135.882812 199.90625 135.882812 C 202.554688 135.882812 204.871094 135.882812 207.519531 135.882812 C 207.847656 135.882812 207.847656 135.882812 208.179688 135.882812 C 208.84375 135.882812 208.84375 136.214844 208.511719 136.875 C 207.847656 137.867188 207.519531 138.859375 206.855469 139.851562 C 204.871094 143.492188 202.886719 147.132812 200.902344 151.101562 C 198.914062 155.074219 196.929688 158.382812 194.945312 162.351562 C 194.613281 163.015625 194.613281 163.34375 194.613281 164.007812 C 194.613281 169.300781 194.613281 174.265625 194.613281 179.558594 C 194.613281 179.890625 194.613281 179.890625 194.613281 180.21875 C 194.613281 180.550781 194.28125 180.882812 193.953125 180.882812 C 193.621094 180.882812 193.621094 180.882812 193.289062 180.882812 C 190.644531 180.882812 188.328125 180.882812 185.679688 180.882812 C 185.347656 180.882812 185.347656 180.882812 185.019531 180.882812 C 184.6875 180.882812 184.355469 180.550781 184.355469 180.21875 C 184.355469 179.890625 184.355469 179.226562 184.355469 178.898438 C 184.355469 173.933594 184.355469 169.300781 184.355469 164.339844 C 184.355469 163.675781 184.355469 163.015625 184.027344 162.351562 C 181.378906 157.71875 179.0625 153.089844 176.414062 148.125 C 174.429688 144.484375 172.445312 140.84375 170.789062 137.207031 C 170.789062 136.875 170.460938 136.875 170.460938 136.542969 C 170.460938 136.214844 170.460938 135.882812 170.789062 135.882812 C 171.121094 135.882812 171.121094 135.882812 171.453125 135.882812 C 174.097656 135.882812 177.078125 135.882812 179.722656 135.882812 C 180.386719 135.882812 181.046875 136.214844 181.046875 136.875 C 182.039062 138.859375 183.03125 140.515625 184.027344 142.5 C 185.679688 145.808594 187.664062 149.117188 189.320312 152.757812 C 189.320312 152.757812 189.320312 152.757812 189.652344 153.089844 Z M 189.652344 153.089844 " fill-opacity="1" fill-rule="nonzero"/><path fill="#a3a3a3" d="M 88.070312 88.234375 C 87.40625 88.234375 87.078125 88.234375 86.746094 88.234375 C 83.4375 88.234375 80.128906 88.234375 76.820312 88.234375 C 76.488281 88.234375 76.15625 88.234375 76.15625 88.234375 C 75.496094 88.234375 75.164062 87.90625 75.164062 87.242188 C 75.164062 86.910156 75.164062 86.910156 75.164062 86.582031 C 75.164062 84.59375 75.164062 82.609375 75.164062 80.625 C 75.164062 79.300781 75.164062 79.300781 76.488281 78.96875 C 76.820312 78.96875 76.820312 78.96875 77.152344 78.96875 C 88.070312 78.96875 98.65625 78.96875 109.578125 78.96875 L 109.90625 78.96875 C 111.230469 78.96875 111.5625 79.300781 111.5625 80.625 C 111.5625 82.609375 111.5625 84.265625 111.5625 86.25 L 111.5625 86.582031 C 111.5625 87.574219 111.230469 87.574219 110.238281 87.90625 C 109.90625 87.90625 109.90625 87.90625 109.578125 87.90625 C 106.269531 87.90625 102.960938 87.90625 99.652344 87.90625 C 99.320312 87.90625 98.988281 87.90625 98.328125 87.90625 C 98.328125 88.566406 98.328125 88.898438 98.328125 89.226562 C 98.328125 100.148438 98.328125 111.066406 98.328125 121.984375 C 98.328125 122.316406 98.328125 122.316406 98.328125 122.648438 C 98.328125 123.96875 98.328125 123.96875 97.003906 123.96875 C 94.355469 123.96875 92.039062 123.96875 89.394531 123.96875 C 88.070312 123.96875 88.070312 123.96875 88.070312 122.648438 C 88.070312 111.398438 88.070312 100.148438 88.070312 89.226562 C 88.070312 89.226562 88.070312 88.898438 88.070312 88.234375 Z M 88.070312 88.234375 " fill-opacity="1" fill-rule="nonzero"/><path fill="#a3a3a3" d="M 207.519531 201.398438 C 206.855469 201.398438 206.527344 201.398438 206.195312 201.398438 C 202.886719 201.398438 199.578125 201.398438 196.269531 201.398438 C 195.9375 201.398438 195.9375 201.398438 195.605469 201.398438 C 194.945312 201.398438 194.945312 201.066406 194.945312 200.40625 C 194.945312 198.089844 194.945312 195.773438 194.945312 193.457031 C 194.945312 192.792969 195.277344 192.792969 195.605469 192.792969 C 195.9375 192.792969 196.269531 192.792969 196.269531 192.792969 C 207.1875 192.792969 218.4375 192.792969 229.355469 192.792969 C 231.011719 192.792969 231.011719 192.792969 231.011719 194.449219 C 231.011719 196.433594 231.011719 198.417969 231.011719 200.40625 C 231.011719 201.398438 230.679688 201.726562 229.6875 201.726562 C 226.046875 201.726562 222.738281 201.726562 219.097656 201.726562 C 218.769531 201.726562 218.4375 201.726562 218.105469 201.726562 C 218.105469 202.390625 218.105469 202.71875 218.105469 203.050781 C 218.105469 213.96875 218.105469 224.890625 218.105469 236.140625 C 218.105469 238.125 218.105469 238.125 216.121094 238.125 C 213.804688 238.125 211.488281 238.125 208.84375 238.125 C 207.847656 238.125 207.519531 238.125 207.519531 236.800781 C 207.519531 225.550781 207.519531 214.632812 207.519531 203.382812 C 207.519531 202.390625 207.519531 202.058594 207.519531 201.398438 Z M 207.519531 201.398438 " fill-opacity="1" fill-rule="nonzero"/><path fill="#a3a3a3" d="M 254.503906 102.132812 C 254.503906 109.082031 254.503906 116.03125 254.503906 122.976562 C 254.503906 123.308594 254.503906 123.308594 254.503906 123.640625 C 254.503906 124.300781 254.171875 124.632812 253.511719 124.632812 L 253.179688 124.632812 C 250.53125 124.632812 247.886719 124.632812 245.238281 124.632812 C 244.246094 124.632812 243.914062 124.632812 243.914062 123.308594 C 243.914062 119.007812 243.914062 115.035156 243.914062 110.734375 C 243.914062 101.140625 243.914062 91.214844 243.914062 81.617188 C 243.914062 81.285156 243.914062 80.957031 243.914062 80.957031 C 243.914062 80.292969 244.246094 79.964844 244.90625 79.964844 C 245.570312 79.964844 245.902344 79.964844 246.5625 79.964844 C 248.546875 79.964844 250.53125 79.964844 252.519531 79.964844 C 254.171875 79.964844 254.171875 79.964844 254.171875 81.617188 C 254.503906 87.90625 254.503906 94.851562 254.503906 102.132812 Z M 254.503906 102.132812 " fill-opacity="1" fill-rule="nonzero"/><path fill="#a3a3a3" d="M 69.539062 101.800781 C 69.539062 108.75 69.539062 115.699219 69.539062 122.648438 C 69.539062 122.976562 69.539062 123.308594 69.539062 123.308594 C 69.539062 123.640625 69.210938 123.96875 68.878906 123.96875 C 68.546875 123.96875 68.546875 123.96875 68.21875 123.96875 C 65.570312 123.96875 63.253906 123.96875 60.605469 123.96875 C 59.28125 123.96875 59.28125 123.96875 59.28125 122.648438 C 59.28125 112.058594 59.28125 101.140625 59.28125 90.550781 C 59.28125 87.242188 59.28125 83.601562 59.28125 80.292969 C 59.28125 78.96875 59.28125 78.96875 60.605469 78.96875 C 63.253906 78.96875 65.570312 78.96875 68.21875 78.96875 C 69.539062 78.96875 69.539062 78.96875 69.539062 80.292969 C 69.539062 87.90625 69.539062 94.851562 69.539062 101.800781 Z M 69.539062 101.800781 " fill-opacity="1" fill-rule="nonzero"/><path fill="#a3a3a3" d="M 360.054688 102.132812 C 360.054688 109.082031 360.054688 116.03125 360.054688 122.648438 C 360.054688 122.976562 360.054688 123.308594 360.054688 123.308594 C 360.054688 123.96875 359.722656 124.300781 359.0625 124.300781 C 356.414062 124.300781 353.4375 124.300781 350.789062 124.300781 C 350.128906 124.300781 349.796875 123.96875 349.796875 123.308594 C 349.796875 122.976562 349.796875 122.976562 349.796875 122.648438 C 349.796875 108.75 349.796875 94.851562 349.796875 80.957031 L 349.796875 80.625 C 349.796875 79.632812 350.128906 79.300781 351.121094 79.300781 C 353.769531 79.300781 356.085938 79.300781 358.730469 79.300781 C 360.054688 79.300781 360.054688 79.300781 360.054688 80.625 C 360.054688 87.90625 360.054688 94.851562 360.054688 102.132812 Z M 360.054688 102.132812 " fill-opacity="1" fill-rule="nonzero"/><path fill="#a3a3a3" d="M 289.578125 215.292969 C 289.578125 222.242188 289.578125 229.191406 289.578125 235.808594 C 289.578125 236.140625 289.578125 236.46875 289.578125 236.46875 C 289.578125 237.132812 289.246094 237.464844 288.585938 237.464844 C 287.261719 237.464844 285.605469 237.464844 284.28125 237.464844 C 282.960938 237.464844 281.636719 237.464844 280.3125 237.464844 C 279.320312 237.464844 279.320312 237.132812 279.320312 236.46875 C 279.320312 236.140625 279.320312 236.140625 279.320312 235.808594 C 279.320312 221.910156 279.320312 208.34375 279.320312 194.449219 C 279.320312 192.792969 279.320312 192.792969 281.304688 192.792969 C 283.621094 192.792969 285.9375 192.792969 288.253906 192.792969 C 289.578125 192.792969 289.578125 192.792969 289.578125 194.117188 C 289.578125 201.066406 289.578125 208.015625 289.578125 215.292969 Z M 289.578125 215.292969 " fill-opacity="1" fill-rule="nonzero"/><path fill="#a3a3a3" d="M 16.597656 214.964844 C 16.597656 221.910156 16.597656 228.859375 16.597656 235.808594 C 16.597656 236.140625 16.597656 236.140625 16.597656 236.46875 C 16.597656 237.132812 16.269531 237.464844 15.605469 237.464844 C 12.960938 237.464844 9.980469 237.464844 7.335938 237.464844 C 6.671875 237.464844 6.34375 237.464844 6.34375 236.46875 C 6.34375 236.140625 6.34375 236.140625 6.34375 235.808594 C 6.34375 221.910156 6.34375 208.015625 6.34375 193.785156 C 6.34375 192.132812 6.34375 192.132812 7.996094 192.132812 C 10.3125 192.132812 12.628906 192.132812 15.277344 192.132812 C 15.605469 192.132812 15.9375 192.132812 15.9375 192.132812 C 16.269531 192.132812 16.597656 192.464844 16.597656 192.792969 C 16.597656 193.125 16.597656 193.457031 16.597656 193.785156 C 16.597656 201.066406 16.597656 208.015625 16.597656 214.964844 Z M 16.597656 214.964844 " fill-opacity="1" fill-rule="nonzero"/></svg>
