<svg xmlns="http://www.w3.org/2000/svg" xmlns:xlink="http://www.w3.org/1999/xlink" width="500" zoomAndPan="magnify" viewBox="0 0 375 374.999991" height="500" preserveAspectRatio="xMidYMid meet" version="1.0"><defs><clipPath id="f03e496558"><path d="M 2 139.089844 L 375 139.089844 L 375 235.839844 L 2 235.839844 Z M 2 139.089844 " clip-rule="nonzero"/></clipPath></defs><g clip-path="url(#f03e496558)"><path fill="#a3a3a3" d="M 109.738281 173.597656 C 107.171875 170.800781 104.050781 168.566406 100.570312 167.042969 C 97.09375 165.519531 93.335938 164.738281 89.539062 164.75 C 85.707031 164.707031 81.910156 165.484375 78.398438 167.027344 C 74.890625 168.566406 71.75 170.839844 69.1875 173.691406 C 66.464844 176.460938 64.3125 179.742188 62.859375 183.34375 C 61.40625 186.945312 60.679688 190.800781 60.722656 194.6875 C 60.652344 198.589844 61.367188 202.46875 62.828125 206.09375 C 64.289062 209.714844 66.460938 213.007812 69.21875 215.773438 C 71.832031 218.546875 74.984375 220.753906 78.484375 222.257812 C 81.984375 223.761719 85.757812 224.53125 89.566406 224.519531 C 93.375 224.507812 97.144531 223.714844 100.632812 222.191406 C 104.125 220.664062 107.265625 218.4375 109.863281 215.652344 C 112.585938 212.890625 114.734375 209.613281 116.1875 206.015625 C 117.636719 202.417969 118.359375 198.566406 118.3125 194.6875 C 118.371094 190.777344 117.644531 186.894531 116.171875 183.269531 C 114.695312 179.648438 112.511719 176.359375 109.738281 173.597656 Z M 101.964844 207.585938 C 100.367188 209.304688 98.433594 210.679688 96.28125 211.621094 C 94.132812 212.558594 91.808594 213.042969 89.464844 213.042969 C 87.117188 213.042969 84.792969 212.558594 82.644531 211.621094 C 80.492188 210.679688 78.558594 209.304688 76.964844 207.585938 C 73.675781 204.066406 71.859375 199.425781 71.886719 194.613281 C 71.910156 189.800781 73.777344 185.175781 77.101562 181.695312 C 78.6875 179.984375 80.613281 178.621094 82.75 177.6875 C 84.890625 176.757812 87.199219 176.273438 89.53125 176.273438 C 91.867188 176.273438 94.175781 176.757812 96.3125 177.6875 C 98.453125 178.621094 100.375 179.984375 101.964844 181.695312 C 105.300781 185.195312 107.164062 189.84375 107.164062 194.679688 C 107.164062 199.515625 105.300781 204.164062 101.964844 207.660156 Z M 45.96875 173.214844 C 43.371094 170.503906 40.246094 168.351562 36.785156 166.894531 C 33.324219 165.4375 29.601562 164.707031 25.84375 164.75 C 21.058594 164.757812 16.359375 166.039062 12.226562 168.460938 C 8.304688 170.566406 4.992188 173.636719 2.59375 177.386719 L 2.59375 235.804688 L 13.605469 235.804688 L 13.605469 220.574219 C 18.328125 224.65625 25.875 224.5 25.875 224.5 C 29.660156 224.535156 33.40625 223.78125 36.882812 222.285156 C 40.355469 220.789062 43.480469 218.589844 46.058594 215.820312 C 48.824219 213.050781 51 209.75 52.457031 206.117188 C 53.917969 202.488281 54.632812 198.597656 54.554688 194.6875 C 54.605469 190.601562 53.847656 186.542969 52.316406 182.753906 C 50.863281 179.179688 48.703125 175.9375 45.96875 173.214844 Z M 38.300781 207.675781 C 36.75 209.382812 34.855469 210.738281 32.738281 211.652344 C 30.621094 212.566406 28.332031 213.011719 26.027344 212.96875 C 23.367188 213 20.734375 212.390625 18.359375 211.1875 C 16.550781 210.171875 14.910156 208.878906 13.5 207.355469 L 13.5 182.046875 C 15.089844 180.226562 17.027344 178.746094 19.203125 177.691406 C 22.410156 176.238281 25.992188 175.847656 29.4375 176.570312 C 32.878906 177.296875 36 179.101562 38.34375 181.726562 C 41.679688 185.210938 43.511719 189.863281 43.453125 194.6875 C 43.503906 197.097656 43.066406 199.496094 42.171875 201.734375 C 41.273438 203.972656 39.9375 206.011719 38.238281 207.722656 Z M 300.5625 173.597656 C 297.996094 170.800781 294.875 168.566406 291.394531 167.042969 C 287.917969 165.519531 284.160156 164.738281 280.363281 164.75 C 276.53125 164.707031 272.738281 165.484375 269.226562 167.023438 C 265.71875 168.5625 262.578125 170.828125 260.011719 173.675781 C 257.277344 176.445312 255.117188 179.726562 253.652344 183.332031 C 252.191406 186.9375 251.453125 190.796875 251.484375 194.6875 C 251.414062 198.589844 252.125 202.46875 253.582031 206.089844 C 255.039062 209.714844 257.210938 213.007812 259.964844 215.773438 C 262.5625 218.566406 265.710938 220.785156 269.210938 222.289062 C 272.714844 223.796875 276.492188 224.554688 280.300781 224.515625 C 284.113281 224.546875 287.886719 223.773438 291.378906 222.246094 C 294.867188 220.71875 298 218.472656 300.5625 215.652344 C 303.214844 212.921875 305.332031 209.714844 306.804688 206.203125 L 293.859375 206.203125 C 293.492188 206.664062 293.109375 207.140625 292.679688 207.585938 C 291.082031 209.308594 289.148438 210.679688 286.996094 211.621094 C 284.84375 212.558594 282.519531 213.046875 280.171875 213.046875 C 277.824219 213.046875 275.5 212.558594 273.347656 211.621094 C 271.195312 210.679688 269.261719 209.308594 267.664062 207.585938 C 265.183594 204.960938 263.53125 201.664062 262.910156 198.105469 L 262.910156 197.230469 L 309.167969 197.230469 L 309.167969 194.6875 C 309.214844 190.769531 308.484375 186.878906 307.019531 183.246094 C 305.523438 179.644531 303.339844 176.367188 300.59375 173.597656 Z M 263.753906 188.0625 C 264.660156 185.675781 266.042969 183.5 267.816406 181.664062 C 269.40625 179.953125 271.328125 178.589844 273.46875 177.660156 C 275.605469 176.726562 277.914062 176.246094 280.25 176.246094 C 282.582031 176.246094 284.890625 176.726562 287.027344 177.660156 C 289.167969 178.589844 291.089844 179.953125 292.679688 181.664062 C 294.472656 183.5 295.851562 185.695312 296.726562 188.105469 Z M 367.03125 177.339844 C 364.5625 173.46875 361.097656 170.335938 357.003906 168.261719 C 352.832031 165.964844 348.160156 164.746094 343.398438 164.71875 C 339.546875 164.683594 335.734375 165.476562 332.21875 167.042969 C 328.699219 168.605469 325.558594 170.902344 323 173.78125 C 318.949219 177.933594 316.191406 183.167969 315.0625 188.855469 C 313.933594 194.542969 314.476562 200.4375 316.636719 205.820312 C 318.125 209.433594 320.238281 212.753906 322.878906 215.636719 C 325.488281 218.464844 328.664062 220.714844 332.199219 222.238281 C 335.734375 223.761719 339.546875 224.527344 343.398438 224.488281 C 346.726562 224.460938 350.019531 223.851562 353.140625 222.691406 C 355.40625 221.75 357.605469 220.648438 359.714844 219.394531 L 360.898438 218.441406 L 362.035156 217.601562 L 367.722656 223.398438 L 374.855469 215.589844 L 367.03125 207.523438 Z M 356.023438 207.417969 C 354.511719 209.144531 352.65625 210.539062 350.574219 211.511719 C 347.289062 212.976562 343.628906 213.371094 340.101562 212.644531 C 336.578125 211.917969 333.371094 210.105469 330.929688 207.460938 C 329.238281 205.773438 327.902344 203.769531 326.992188 201.558594 C 326.082031 199.351562 325.625 196.984375 325.640625 194.59375 C 325.574219 189.769531 327.417969 185.117188 330.777344 181.648438 C 332.367188 179.890625 334.316406 178.496094 336.488281 177.554688 C 338.660156 176.613281 341.011719 176.148438 343.382812 176.191406 C 344.601562 176.183594 345.816406 176.320312 347.003906 176.589844 C 348.207031 176.875 349.386719 177.273438 350.515625 177.785156 C 352.546875 178.820312 354.402344 180.167969 356.023438 181.773438 Z M 236.960938 173.214844 C 234.363281 170.503906 231.238281 168.351562 227.777344 166.894531 C 224.316406 165.4375 220.59375 164.707031 216.835938 164.75 C 212.058594 164.769531 207.371094 166.054688 203.25 168.476562 C 201.664062 169.355469 200.164062 170.382812 198.769531 171.542969 L 198.511719 171.773438 C 197.734375 170.761719 196.859375 169.824219 195.902344 168.980469 C 192.054688 166.078125 187.332031 164.578125 182.511719 164.734375 C 181.738281 164.734375 180.964844 164.796875 180.199219 164.917969 C 179.414062 165.023438 178.664062 165.164062 178.050781 165.316406 C 176.523438 165.710938 175.046875 166.273438 173.648438 167.003906 C 171.542969 168.199219 169.589844 169.644531 167.835938 171.3125 L 165.796875 173.644531 C 164.019531 171.21875 161.816406 169.140625 159.292969 167.507812 C 156.292969 165.65625 152.832031 164.695312 149.308594 164.734375 C 147.855469 164.753906 146.40625 164.949219 145 165.316406 C 143.503906 165.675781 142.046875 166.1875 140.660156 166.847656 C 138.648438 167.957031 136.78125 169.3125 135.105469 170.882812 L 133.25 172.921875 L 126.488281 165.914062 L 119.355469 173.582031 L 127.160156 181.789062 L 127.160156 224.085938 L 138.203125 224.085938 L 138.203125 187.722656 C 138.160156 184.703125 139.296875 181.785156 141.378906 179.59375 C 142.378906 178.488281 143.605469 177.613281 144.972656 177.023438 C 146.339844 176.433594 147.820312 176.144531 149.308594 176.175781 C 151.515625 176.082031 153.6875 176.707031 155.511719 177.949219 C 157.335938 179.191406 158.710938 180.988281 159.429688 183.074219 C 160.027344 184.539062 160.347656 186.097656 160.382812 187.675781 L 160.382812 224.042969 L 171.441406 224.042969 L 171.441406 187.722656 C 171.394531 184.707031 172.527344 181.789062 174.597656 179.59375 C 175.597656 178.492188 176.820312 177.613281 178.183594 177.023438 C 179.550781 176.433594 181.027344 176.144531 182.511719 176.175781 C 184.722656 176.078125 186.898438 176.699219 188.726562 177.945312 C 190.554688 179.1875 191.929688 180.988281 192.652344 183.074219 C 193.203125 184.449219 193.519531 185.90625 193.585938 187.386719 L 193.585938 235.804688 L 204.566406 235.804688 L 204.566406 220.574219 C 209.292969 224.65625 216.835938 224.5 216.835938 224.5 C 220.621094 224.535156 224.371094 223.78125 227.851562 222.285156 C 231.328125 220.792969 234.457031 218.589844 237.035156 215.820312 C 239.792969 213.046875 241.96875 209.746094 243.425781 206.113281 C 244.886719 202.484375 245.601562 198.597656 245.535156 194.6875 C 245.585938 190.601562 244.824219 186.542969 243.292969 182.753906 C 241.832031 179.199219 239.679688 175.972656 236.960938 173.261719 Z M 229.292969 207.722656 C 227.742188 209.429688 225.847656 210.789062 223.730469 211.703125 C 221.613281 212.621094 219.328125 213.070312 217.023438 213.03125 C 214.359375 213.0625 211.730469 212.453125 209.351562 211.25 C 207.546875 210.226562 205.910156 208.933594 204.492188 207.417969 L 204.492188 182.109375 C 206.085938 180.296875 208.027344 178.816406 210.195312 177.753906 C 213.402344 176.300781 216.988281 175.910156 220.433594 176.636719 C 223.878906 177.359375 227.003906 179.164062 229.351562 181.789062 C 232.632812 185.273438 234.425781 189.898438 234.351562 194.6875 C 234.402344 197.097656 233.96875 199.492188 233.074219 201.730469 C 232.179688 203.972656 230.847656 206.007812 229.152344 207.722656 Z M 178.941406 139.152344 C 176.746094 139.191406 174.566406 139.503906 172.453125 140.085938 C 172.175781 140.085938 145.644531 146.222656 139.476562 147.753906 C 137.78125 148.125 136.265625 149.0625 135.171875 150.40625 C 134.074219 151.75 133.46875 153.429688 133.449219 155.164062 L 224.414062 155.164062 C 224.367188 153.4375 223.753906 151.773438 222.660156 150.433594 C 221.570312 149.09375 220.066406 148.152344 218.386719 147.753906 C 213.785156 146.558594 184.261719 139.765625 184.03125 139.703125 C 182.359375 139.316406 180.652344 139.109375 178.941406 139.089844 " fill-opacity="1" fill-rule="nonzero"/></g></svg>
