<svg xmlns="http://www.w3.org/2000/svg" xmlns:xlink="http://www.w3.org/1999/xlink" width="500" zoomAndPan="magnify" viewBox="0 0 375 374.999991" height="500" preserveAspectRatio="xMidYMid meet" version="1.0"><defs><clipPath id="992a0e2488"><path d="M 0 104.664062 L 375 104.664062 L 375 184 L 0 184 Z M 0 104.664062 " clip-rule="nonzero"/></clipPath><clipPath id="44bb8cd3fd"><path d="M 0 192 L 246 192 L 246 270.414062 L 0 270.414062 Z M 0 192 " clip-rule="nonzero"/></clipPath></defs><g clip-path="url(#992a0e2488)"><path fill="#a3a3a3" d="M 51.800781 138.941406 L 51.800781 124.347656 C 51.800781 124.1875 51.570312 107.113281 30.742188 107.113281 L 0.0195312 107.101562 L 0 181.488281 L 14.867188 181.488281 L 14.867188 157.101562 L 21.664062 156.527344 L 40.472656 181.492188 L 56.824219 181.503906 L 36.953125 155.160156 C 51.59375 152.234375 51.800781 139.101562 51.800781 138.941406 M 14.882812 119.058594 L 30.730469 119.058594 C 37.691406 119.058594 37.960938 123.722656 37.996094 124.261719 L 37.996094 138.9375 C 37.964844 139.414062 37.699219 143.742188 30.886719 143.789062 L 14.882812 144.84375 Z M 63.359375 130.902344 C 56.980469 137.875 56.902344 146.5625 56.953125 148.28125 L 56.9375 159.433594 C 56.902344 162.824219 56.796875 171.835938 64.585938 177.953125 C 69.171875 181.53125 75.554688 183.335938 83.796875 183.335938 C 90.714844 183.335938 98.953125 182.078125 108.605469 179.578125 L 105.234375 166.679688 C 82.597656 172.589844 75.003906 169.1875 72.792969 167.464844 C 70.753906 165.882812 70.328125 163.550781 70.25 161.03125 C 74.40625 161.078125 82.394531 160.992188 96.546875 160.78125 C 102.230469 160.691406 105.550781 157.875 107.332031 155.632812 C 111.917969 149.855469 110.847656 141.621094 110.398438 139.183594 C 109.6875 132.863281 103.175781 121.917969 82.914062 122.769531 C 74.585938 123.089844 68.003906 125.828125 63.351562 130.902344 M 97.136719 140.664062 C 97.136719 140.664062 98.3125 144.042969 96.933594 147.34375 C 96.90625 147.410156 96.648438 147.460938 96.160156 147.472656 C 84.398438 147.664062 74.085938 147.757812 70.242188 147.726562 C 70.242188 146.984375 70.476562 142.84375 73.171875 139.890625 C 75.320312 137.550781 78.777344 136.246094 83.445312 136.070312 C 93.148438 135.691406 96.5625 138.675781 97.136719 140.667969 M 345.417969 119.304688 C 349.429688 119.304688 352.675781 116.074219 352.675781 112.0625 C 352.675781 108.050781 349.429688 104.804688 345.417969 104.804688 C 341.40625 104.804688 338.171875 108.046875 338.171875 112.0625 C 338.160156 116.0625 341.417969 119.304688 345.417969 119.304688 M 116.285156 140.5625 L 116.269531 181.519531 L 131.132812 181.527344 L 131.148438 140.5625 C 131.148438 140.058594 131.332031 135.585938 138.007812 135.585938 L 147.613281 135.585938 C 154.183594 135.585938 154.5625 139.898438 154.585938 140.363281 L 154.570312 181.527344 L 169.3125 181.527344 L 169.3125 140.5625 C 169.3125 140.398438 169.066406 122.707031 147.613281 122.703125 L 138.007812 122.703125 C 116.519531 122.691406 116.285156 140.378906 116.285156 140.5625 M 360.757812 107.179688 L 360.742188 181.574219 L 374.964844 181.574219 L 375 107.179688 Z M 278.464844 107.15625 L 278.464844 181.546875 L 292.691406 181.546875 L 292.699219 151.371094 L 292.714844 107.164062 Z M 331.691406 181.558594 L 308.960938 151.378906 L 330.570312 122.734375 L 314.304688 122.734375 L 292.695312 151.367188 L 315.425781 181.550781 L 331.691406 181.550781 Z M 352.761719 181.558594 L 352.773438 122.742188 L 338.046875 122.742188 L 338.046875 181.558594 Z M 270.941406 156.964844 L 270.941406 149.175781 C 270.941406 134.851562 259.296875 123.195312 244.972656 123.195312 L 241.550781 123.195312 C 227.199219 123.195312 215.546875 134.835938 215.546875 149.164062 L 215.546875 156.949219 C 215.546875 171.269531 227.199219 182.929688 241.519531 182.929688 L 244.953125 182.929688 C 259.285156 182.945312 270.941406 171.28125 270.941406 156.964844 M 241.519531 169.550781 C 234.578125 169.550781 228.925781 163.894531 228.929688 156.949219 L 228.929688 149.164062 C 228.929688 142.214844 234.582031 136.566406 241.546875 136.566406 L 244.972656 136.566406 C 251.933594 136.566406 257.585938 142.214844 257.585938 149.175781 L 257.585938 156.964844 C 257.585938 163.902344 251.910156 169.550781 244.972656 169.550781 Z M 172.953125 134.703125 L 182.53125 134.703125 L 182.53125 163.457031 C 182.53125 163.644531 182.746094 181.265625 204.039062 181.265625 L 211.507812 181.265625 L 211.507812 169.3125 L 204.300781 169.3125 C 197.582031 169.3125 197.222656 164.058594 197.203125 163.457031 L 197.222656 134.703125 L 211.507812 134.703125 L 211.507812 122.523438 L 197.222656 122.523438 L 197.222656 107.109375 L 182.539062 107.109375 L 182.539062 122.523438 L 172.96875 122.523438 L 172.960938 134.699219 Z M 172.953125 134.703125 " fill-opacity="1" fill-rule="evenodd"/></g><g clip-path="url(#44bb8cd3fd)"><path fill="#a3a3a3" d="M 60.304688 229.109375 L 60.285156 270.132812 L 75.058594 270.132812 L 74.984375 229.332031 C 74.984375 229.140625 74.730469 211.515625 53.339844 211.515625 L 43.765625 211.515625 C 22.367188 211.515625 22.121094 229.128906 22.121094 229.328125 L 22.121094 270.140625 L 36.925781 270.140625 L 36.925781 229.328125 C 36.925781 228.808594 37.117188 224.328125 43.765625 224.328125 L 53.339844 224.328125 C 59.90625 224.335938 60.285156 228.640625 60.304688 229.117188 M 97.707031 270.152344 L 97.722656 211.53125 L 83.027344 211.53125 L 83.027344 270.152344 L 97.714844 270.152344 Z M 127.898438 211.425781 L 127.898438 196.007812 L 113.214844 195.988281 L 113.214844 211.425781 L 103.644531 211.425781 L 103.644531 223.59375 L 113.214844 223.59375 L 113.207031 252.363281 C 113.207031 252.539062 113.449219 270.152344 134.710938 270.175781 L 142.199219 270.175781 L 142.199219 258.195312 L 134.960938 258.195312 C 128.265625 258.195312 127.90625 252.945312 127.894531 252.363281 L 127.894531 223.597656 L 142.199219 223.597656 L 142.199219 211.441406 L 127.894531 211.425781 Z M 149.789062 211.527344 L 149.789062 270.175781 L 164.554688 270.175781 L 164.460938 211.546875 L 149.78125 211.527344 Z M 222.714844 270.183594 L 222.714844 232.164062 C 222.726562 227.484375 221.203125 212.179688 201.597656 212.160156 L 193.933594 212.160156 C 172.929688 212.160156 172.667969 229.460938 172.667969 229.636719 L 185.9375 229.636719 C 185.9375 229.414062 186.222656 224.078125 193.933594 224.078125 L 201.597656 224.078125 C 208.792969 224.078125 209.070312 229.015625 209.070312 229.578125 L 209.058594 233.753906 L 192.011719 233.742188 C 171.269531 233.742188 171.027344 250.765625 171.027344 250.929688 L 171.027344 252.90625 C 171.027344 253.058594 171.253906 269.671875 192.007812 269.671875 C 193.757812 269.671875 203.144531 267.628906 209.054688 266.292969 L 209.054688 270.1875 L 222.714844 270.1875 Z M 184.792969 252.902344 L 184.804688 250.855469 C 184.808594 250.304688 185.085938 245.652344 192.011719 245.652344 L 209.058594 245.652344 L 209.058594 254.316406 C 205.863281 255.019531 197.988281 256.558594 191.882812 257.75 C 185.085938 257.691406 184.808594 253.386719 184.796875 252.902344 M 90.375 207.035156 C 94.390625 207.035156 97.632812 203.800781 97.632812 199.785156 C 97.632812 195.769531 94.386719 192.515625 90.375 192.515625 C 86.367188 192.515625 83.125 195.785156 83.125 199.785156 C 83.125 203.789062 86.378906 207.035156 90.375 207.035156 M 149.925781 199.785156 C 149.925781 203.796875 153.164062 207.035156 157.164062 207.035156 C 161.164062 207.035156 164.425781 203.800781 164.425781 199.785156 C 164.425781 195.769531 161.183594 192.515625 157.167969 192.515625 C 153.152344 192.515625 149.925781 195.785156 149.925781 199.785156 M 245.175781 196.019531 L 230.953125 196.019531 L 230.953125 270.179688 L 245.175781 270.179688 Z M 0 270.183594 L 14.238281 270.183594 L 14.238281 196.023438 L 0 196.023438 Z M 0 270.183594 " fill-opacity="1" fill-rule="evenodd"/></g></svg>
